<svg width="16" height="12" fill="none" xmlns="http://www.w3.org/2000/svg" data-v-3f0de0c4=""><path d="M13.198 1.231a12.368 12.368 0 00-3.053-.947.046.046 0 00-.05.023c-.131.235-.277.54-.38.781a11.42 11.42 0 00-3.429 0A7.905 7.905 0 005.9.308a.048.048 0 00-.049-.024 12.335 12.335 0 00-3.053.947.044.044 0 00-.02.017C.833 4.153.301 6.988.562 9.786a.051.051 0 00.02.035 12.437 12.437 0 003.745 1.893c.02.006.04 0 .053-.017.288-.394.545-.81.766-1.246a.048.048 0 00-.026-.066 8.184 8.184 0 01-1.17-.558.048.048 0 01-.005-.08c.079-.059.157-.12.232-.182a.046.046 0 01.049-.006c2.455 1.12 5.112 1.12 7.538 0a.046.046 0 01.05.006c.075.061.153.123.232.182a.048.048 0 01-.004.08 7.684 7.684 0 01-1.17.557.048.048 0 00-.026.067c.225.436.483.851.766 1.246a.048.048 0 00.052.017 12.395 12.395 0 003.752-1.893.048.048 0 00.02-.034c.312-3.236-.524-6.047-2.218-8.538a.038.038 0 00-.02-.018zm-7.685 6.85c-.74 0-1.349-.678-1.349-1.511 0-.833.598-1.512 1.349-1.512.756 0 1.36.685 1.348 1.512 0 .833-.598 1.512-1.348 1.512zm4.984 0c-.74 0-1.348-.678-1.348-1.511 0-.833.597-1.512 1.348-1.512.757 0 1.36.685 1.348 1.512 0 .833-.591 1.512-1.348 1.512z" fill="#fff"/></svg>