<svg width="16" height="15" fill="none" xmlns="http://www.w3.org/2000/svg" data-v-3f0de0c4=""><g clip-path="url(#clip0_0_65723)"><path fill-rule="evenodd" clip-rule="evenodd" d="M15.5 7.5a7.5 7.5 0 11-15 0 7.5 7.5 0 0115 0zm-11.3.252l.032-.051 1.951-3.052a.067.067 0 01.117.008c.326.73.608 1.64.476 2.205-.056.233-.21.548-.384.839a1.531 1.531 0 01-.073.124.066.066 0 01-.056.03H4.257a.067.067 0 01-.057-.103zm8.697 1.05V8.32a.067.067 0 00-.086-.065l-2.281.66a.064.064 0 00-.032.02c-.244.27-.452.45-.507.498l-.004.004a.773.773 0 01-.502.185h-.826V8.78h.656a.07.07 0 00.046-.017l.084-.078c.037-.033.08-.073.131-.124l.014-.014c.027-.027.056-.056.084-.087.034-.033.067-.07.098-.107a5.04 5.04 0 00.404-.5l.04-.055c.024-.037.049-.077.07-.114.064-.1.119-.207.165-.314.021-.046.038-.094.055-.141l.006-.018a1.247 1.247 0 00.052-.662v-.006a1.959 1.959 0 00-.143-.455 2.14 2.14 0 00-.221-.405c-.012-.02-.025-.038-.038-.057l-.03-.044c-.036-.057-.078-.112-.118-.165a5.66 5.66 0 00-.266-.323 6.352 6.352 0 00-.508-.506 6.284 6.284 0 00-.278-.242c-.024-.018-.045-.036-.065-.053l-.039-.032a7.575 7.575 0 01-.062-.047l-.03-.022a.07.07 0 00-.02-.01l-.087-.025v-.728a.43.43 0 00-.124-.302.418.418 0 00-.3-.126.426.426 0 00-.424.428v.49l-.044-.012-.12-.034-.108-.03h-.005l-.825-.224a.043.043 0 00-.048.062l.131.244.027.057.019.038.064.134.058.122.028.062c.034.076.07.157.106.243.031.074.062.147.089.223.074.192.144.397.205.607.015.047.027.093.04.14l.015.058.009.037a3.3 3.3 0 01.062.293c.012.067.023.131.03.196.009.073.018.146.021.22a2.17 2.17 0 01-.05.721c-.01.038-.02.077-.032.115-.012.04-.026.08-.042.122l-.016.046-.003.008a4.852 4.852 0 01-.306.63 7.771 7.771 0 01-.388.618l-.018.027c-.008.01-.014.02-.02.03a.069.069 0 00.055.108H7.81v.842H6.732a.767.767 0 01-.687-.426.744.744 0 01-.078-.419c.004-.042-.028-.082-.07-.082h-2.18a.067.067 0 00-.067.067v.044a2.512 2.512 0 002.508 2.517h3.91c.732 0 1.148-.668 1.557-1.324.114-.183.227-.365.347-.531.215-.3.732-.537.883-.601a.07.07 0 00.042-.064z" fill="#fff"/></g><defs><clipPath id="clip0_0_65723"><path fill="#fff" transform="translate(.5)" d="M0 0h15v15H0z"/></clipPath></defs></svg>