<svg width="18" height="17" fill="#FFF" xmlns="http://www.w3.org/2000/svg" class="header__twitter" data-v-3f0de0c4=""><path d="M14.633 5.61c.009.125.009.25.009.376 0 3.84-2.924 8.27-8.27 8.27v-.003a8.228 8.228 0 01-4.455-1.303 5.837 5.837 0 004.302-1.205 2.91 2.91 0 01-2.716-2.018c.435.084.884.067 1.312-.05a2.907 2.907 0 01-2.331-2.849v-.037c.404.225.856.35 1.319.364a2.91 2.91 0 01-.9-3.88 8.25 8.25 0 005.99 3.036 2.908 2.908 0 014.953-2.651 5.833 5.833 0 001.846-.706 2.917 2.917 0 01-1.278 1.608 5.78 5.78 0 001.67-.458 5.905 5.905 0 01-1.451 1.506z"/></svg>