<svg xmlns="http://www.w3.org/2000/svg" xmlns:xlink="http://www.w3.org/1999/xlink" style="margin:auto;background:#000000;display:block;z-index:1;position:relative" width="1920" height="1080" preserveAspectRatio="xMidYMid" viewBox="0 0 1920 1080">
<g transform="translate(960,540) scale(1,1) translate(-960,-540)"><path id="path0" d="M 1258.9072164067065 819.340710496809
c 0 19.09783914052265 -4.672875534383202 5.485549540362889 -10.158425074746091 5.485549540362889
S 1238.5903662572146 838.4385496373317 1238.5903662572146 819.340710496809
s 4.672875534383202 -5.485549540362889 10.158425074746091 -5.485549540362889
S 1258.9072164067065 800.2428713562864 1258.9072164067065 819.340710496809
z" fill="none" stroke="none"></path>
<circle cx="0" cy="0" r="1.4635866161662487" fill="#d4d4d4" opacity="0.9">
  <animateMotion begin="-6.824117188319856s" dur="20s" repeatCount="indefinite">
    <mpath xlink:href="#path0"></mpath>
  </animateMotion>
</circle><path id="path1" d="M 567.6969533135109 910.3027292509586
c 0 35.88010305326401 -8.779174151330555 10.30598704721413 -19.085161198544686 10.30598704721413
S 529.5266309164215 946.1828323042225 529.5266309164215 910.3027292509586
s 8.779174151330555 -10.30598704721413 19.085161198544686 -10.30598704721413
S 567.6969533135109 874.4226261976946 567.6969533135109 910.3027292509586
z" fill="none" stroke="none"></path>
<circle cx="0" cy="0" r="1.8689004315957956" fill="#353535" opacity="0.9">
  <animateMotion begin="-6.558362868826251s" dur="20s" repeatCount="indefinite">
    <mpath xlink:href="#path1"></mpath>
  </animateMotion>
</circle><path id="path2" d="M 202.9712876351748 255.92106258203546
c 0 19.168510101625444 -4.690167365291331 5.505848646211564 -10.196016011502895 5.505848646211564
S 182.579255612169 275.0895726836609 182.579255612169 255.92106258203546
s 4.690167365291331 -5.505848646211564 10.196016011502895 -5.505848646211564
S 202.9712876351748 236.75255248041003 202.9712876351748 255.92106258203546
z" fill="none" stroke="none"></path>
<circle cx="0" cy="0" r="1.1445388652621615" fill="#666666" opacity="0.9">
  <animateMotion begin="-9.959505446408855s" dur="20s" repeatCount="indefinite">
    <mpath xlink:href="#path2"></mpath>
  </animateMotion>
</circle><path id="path3" d="M 1339.3004734002627 8.428103892990649
c 0 23.972546168116676 -5.865622998581738 6.885731346161172 -12.75135434474291 6.885731346161172
S 1313.797764710777 32.40065006110733 1313.797764710777 8.428103892990649
s 5.865622998581738 -6.885731346161172 12.75135434474291 -6.885731346161172
S 1339.3004734002627 -15.544442275126027 1339.3004734002627 8.428103892990649
z" fill="none" stroke="none"></path>
<circle cx="0" cy="0" r="1.0306346851234418" fill="#353535" opacity="0.9">
  <animateMotion begin="-1.977905412064982s" dur="20s" repeatCount="indefinite">
    <mpath xlink:href="#path3"></mpath>
  </animateMotion>
</circle><path id="path4" d="M 530.6691672467264 71.47482581232119
c 0 26.27629886279726 -6.429307168556775 7.547447545697085 -13.976754714253861 7.547447545697085
S 502.7156578182187 97.75112467511845 502.7156578182187 71.47482581232119
s 6.429307168556775 -7.547447545697085 13.976754714253861 -7.547447545697085
S 530.6691672467264 45.198526949523924 530.6691672467264 71.47482581232119
z" fill="none" stroke="none"></path>
<circle cx="0" cy="0" r="1.905316315633201" fill="#9b9b9b" opacity="0.9">
  <animateMotion begin="-14.092952908584277s" dur="20s" repeatCount="indefinite">
    <mpath xlink:href="#path4"></mpath>
  </animateMotion>
</circle><path id="path5" d="M 744.4386398555987 6.374672099382024
c 0 37.22431196490526 -9.108076331838522 10.692089606940874 -19.800165938779394 10.692089606940874
S 704.8383079780399 43.598984064287286 704.8383079780399 6.374672099382024
s 9.108076331838522 -10.692089606940874 19.800165938779394 -10.692089606940874
S 744.4386398555987 -30.849639865523237 744.4386398555987 6.374672099382024
z" fill="none" stroke="none"></path>
<circle cx="0" cy="0" r="1.0423569803470583" fill="#353535" opacity="0.9">
  <animateMotion begin="-19.514974580204274s" dur="20s" repeatCount="indefinite">
    <mpath xlink:href="#path5"></mpath>
  </animateMotion>
</circle><path id="path6" d="M 1740.7162568688307 990.1519808952775
c 0 29.44877042669827 -7.205550210787874 8.458689377881418 -15.664239588669293 8.458689377881418
S 1709.3877776914921 1019.6007513219757 1709.3877776914921 990.1519808952775
s 7.205550210787874 -8.458689377881418 15.664239588669293 -8.458689377881418
S 1740.7162568688307 960.7032104685792 1740.7162568688307 990.1519808952775
z" fill="none" stroke="none"></path>
<circle cx="0" cy="0" r="1.0195940690203698" fill="#ffffff" opacity="0.9">
  <animateMotion begin="-18.273305642648502s" dur="20s" repeatCount="indefinite">
    <mpath xlink:href="#path6"></mpath>
  </animateMotion>
</circle><path id="path7" d="M 1424.5547490666388 88.58537622026898
c 0 25.007793435880597 -6.11892818111972 7.18308960392315 -13.302017785042871 7.18308960392315
S 1397.9507134965531 113.59316965614958 1397.9507134965531 88.58537622026898
s 6.11892818111972 -7.18308960392315 13.302017785042871 -7.18308960392315
S 1424.5547490666388 63.57758278438838 1424.5547490666388 88.58537622026898
z" fill="none" stroke="none"></path>
<circle cx="0" cy="0" r="1.7796467114015657" fill="#ffffff" opacity="0.9">
  <animateMotion begin="-19.118181134893995s" dur="20s" repeatCount="indefinite">
    <mpath xlink:href="#path7"></mpath>
  </animateMotion>
</circle><path id="path8" d="M 827.3126727402223 153.00535758739792
c 0 31.203072338243892 -7.63479429552776 8.962584607793458 -16.597378903321218 8.962584607793458
S 794.1179149335799 184.2084299256418 794.1179149335799 153.00535758739792
s 7.63479429552776 -8.962584607793458 16.597378903321218 -8.962584607793458
S 827.3126727402223 121.80228524915404 827.3126727402223 153.00535758739792
z" fill="none" stroke="none"></path>
<circle cx="0" cy="0" r="1.7023087742787" fill="#ffffff" opacity="0.9">
  <animateMotion begin="-18.599530774221243s" dur="20s" repeatCount="indefinite">
    <mpath xlink:href="#path8"></mpath>
  </animateMotion>
</circle><path id="path9" d="M 189.4781063861359 594.6806839825239
c 0 30.6624974055299 -7.502525960927528 8.807313084567099 -16.309839045494627 8.807313084567099
S 156.85842829514667 625.3431813880537 156.85842829514667 594.6806839825239
s 7.502525960927528 -8.807313084567099 16.309839045494627 -8.807313084567099
S 189.4781063861359 564.018186576994 189.4781063861359 594.6806839825239
z" fill="none" stroke="none"></path>
<circle cx="0" cy="0" r="1.967336365381475" fill="#353535" opacity="0.9">
  <animateMotion begin="-3.489696303979728s" dur="20s" repeatCount="indefinite">
    <mpath xlink:href="#path9"></mpath>
  </animateMotion>
</circle><path id="path10" d="M 1863.0552197879656 298.83234378656044
c 0 24.745330932109344 -6.054708632324626 7.107701437946301 -13.162410070270926 7.107701437946301
S 1836.7303996474238 323.5776747186698 1836.7303996474238 298.83234378656044
s 6.054708632324626 -7.107701437946301 13.162410070270926 -7.107701437946301
S 1863.0552197879656 274.0870128544511 1863.0552197879656 298.83234378656044
z" fill="none" stroke="none"></path>
<circle cx="0" cy="0" r="1.9136420955854623" fill="#ffffff" opacity="0.9">
  <animateMotion begin="-6.758577192450761s" dur="20s" repeatCount="indefinite">
    <mpath xlink:href="#path10"></mpath>
  </animateMotion>
</circle><path id="path11" d="M 59.77259089311829 764.4278826040729
c 0 37.09930547295657 -9.077489637000012 10.656183486913058 -19.733673123913068 10.656183486913058
S 20.305244645292152 801.5271880770295 20.305244645292152 764.4278826040729
s 9.077489637000012 -10.656183486913058 19.733673123913068 -10.656183486913058
S 59.77259089311829 727.3285771311164 59.77259089311829 764.4278826040729
z" fill="none" stroke="none"></path>
<circle cx="0" cy="0" r="1.4729585614909213" fill="#353535" opacity="0.9">
  <animateMotion begin="-4.975201039317305s" dur="20s" repeatCount="indefinite">
    <mpath xlink:href="#path11"></mpath>
  </animateMotion>
</circle><path id="path12" d="M 956.9794573071376 85.35236490427113
c 0 30.818131366410796 -7.5406066109303005 8.852016456309483 -16.392623067239786 8.852016456309483
S 924.194211172658 116.17049627068192 924.194211172658 85.35236490427113
s 7.5406066109303005 -8.852016456309483 16.392623067239786 -8.852016456309483
S 956.9794573071376 54.53423353786033 956.9794573071376 85.35236490427113
z" fill="none" stroke="none"></path>
<circle cx="0" cy="0" r="1.6435121641411607" fill="#ffffff" opacity="0.9">
  <animateMotion begin="-13.91206946791629s" dur="20s" repeatCount="indefinite">
    <mpath xlink:href="#path12"></mpath>
  </animateMotion>
</circle><path id="path13" d="M 541.0967293418496 859.9303642273369
c 0 30.252823925528777 -7.402286705182572 8.689640914779542 -16.091927619962114 8.689640914779542
S 508.91287410192535 890.1831881528657 508.91287410192535 859.9303642273369
s 7.402286705182572 -8.689640914779542 16.091927619962114 -8.689640914779542
S 541.0967293418496 829.6775403018081 541.0967293418496 859.9303642273369
z" fill="none" stroke="none"></path>
<circle cx="0" cy="0" r="1.4205389319752086" fill="#d4d4d4" opacity="0.9">
  <animateMotion begin="-9.074566343512327s" dur="20s" repeatCount="indefinite">
    <mpath xlink:href="#path13"></mpath>
  </animateMotion>
</circle><path id="path14" d="M 89.48156378721845 120.81667557474955
c 0 30.271567954265674 -7.406873010086281 8.695024837927374 -16.101897848013657 8.695024837927374
S 57.27776809119113 151.08824352901522 57.27776809119113 120.81667557474955
s 7.406873010086281 -8.695024837927374 16.101897848013657 -8.695024837927374
S 89.48156378721845 90.54510762048388 89.48156378721845 120.81667557474955
z" fill="none" stroke="none"></path>
<circle cx="0" cy="0" r="1.3736699136548876" fill="#d4d4d4" opacity="0.9">
  <animateMotion begin="-18.67597336830869s" dur="20s" repeatCount="indefinite">
    <mpath xlink:href="#path14"></mpath>
  </animateMotion>
</circle><path id="path15" d="M 1845.3864079434823 970.4571017642577
c 0 19.327802896570287 -4.7291432619267715 5.5516029596531675 -10.280746221579939 5.5516029596531675
S 1824.8249155003225 989.7849046608279 1824.8249155003225 970.4571017642577
s 4.7291432619267715 -5.5516029596531675 10.280746221579939 -5.5516029596531675
S 1845.3864079434823 951.1292988676875 1845.3864079434823 970.4571017642577
z" fill="none" stroke="none"></path>
<circle cx="0" cy="0" r="1.781318641269008" fill="#666666" opacity="0.9">
  <animateMotion begin="-5.489834146571186s" dur="20s" repeatCount="indefinite">
    <mpath xlink:href="#path15"></mpath>
  </animateMotion>
</circle><path id="path16" d="M 1004.2365876880228 825.4540306773541
c 0 29.311664948046793 -7.172003125585917 8.419308016992165 -15.591311142578082 8.419308016992165
S 973.0539654028667 854.7656956254009 973.0539654028667 825.4540306773541
s 7.172003125585917 -8.419308016992165 15.591311142578082 -8.419308016992165
S 1004.2365876880228 796.1423657293074 1004.2365876880228 825.4540306773541
z" fill="none" stroke="none"></path>
<circle cx="0" cy="0" r="1.3381794769480333" fill="#353535" opacity="0.9">
  <animateMotion begin="-1.5521772564484726s" dur="20s" repeatCount="indefinite">
    <mpath xlink:href="#path16"></mpath>
  </animateMotion>
</circle><path id="path17" d="M 591.3886181214222 988.5276246259235
c 0 21.80765861669003 -5.335916470041177 6.263901943091817 -11.599818413132994 6.263901943091817
S 568.1889812951562 1010.3352832426135 568.1889812951562 988.5276246259235
s 5.335916470041177 -6.263901943091817 11.599818413132994 -6.263901943091817
S 591.3886181214222 966.7199660092335 591.3886181214222 988.5276246259235
z" fill="none" stroke="none"></path>
<circle cx="0" cy="0" r="1.9722004345542636" fill="#d4d4d4" opacity="0.9">
  <animateMotion begin="-9.291920228058439s" dur="20s" repeatCount="indefinite">
    <mpath xlink:href="#path17"></mpath>
  </animateMotion>
</circle><path id="path18" d="M 859.0059346859671 715.7055331329484
c 0 28.54458604650534 -6.984313607123647 8.198976843145152 -15.183290450268798 8.198976843145152
S 828.6393537854294 744.2501191794537 828.6393537854294 715.7055331329484
s 6.984313607123647 -8.198976843145152 15.183290450268798 -8.198976843145152
S 859.0059346859671 687.1609470864431 859.0059346859671 715.7055331329484
z" fill="none" stroke="none"></path>
<circle cx="0" cy="0" r="1.4582614859337826" fill="#353535" opacity="0.9">
  <animateMotion begin="-12.550965483312524s" dur="20s" repeatCount="indefinite">
    <mpath xlink:href="#path18"></mpath>
  </animateMotion>
</circle><path id="path19" d="M 806.7430053546256 1024.174098488758
c 0 28.32143550047255 -6.9297129416049845 8.1348804097102 -15.064593351315185 8.1348804097102
S 776.6138186519951 1052.4955339892306 776.6138186519951 1024.174098488758
s 6.9297129416049845 -8.1348804097102 15.064593351315185 -8.1348804097102
S 806.7430053546256 995.8526629882855 806.7430053546256 1024.174098488758
z" fill="none" stroke="none"></path>
<circle cx="0" cy="0" r="1.7388293975936082" fill="#666666" opacity="0.9">
  <animateMotion begin="-1.0335411840643838s" dur="20s" repeatCount="indefinite">
    <mpath xlink:href="#path19"></mpath>
  </animateMotion>
</circle><path id="path20" d="M 1492.5241521119015 127.43532005781522
c 0 27.05037226412659 -6.618708107179909 7.769787777993808 -14.388495885173718 7.769787777993808
S 1463.7471603415538 154.4856923219418 1463.7471603415538 127.43532005781522
s 6.618708107179909 -7.769787777993808 14.388495885173718 -7.769787777993808
S 1492.5241521119015 100.38494779368862 1492.5241521119015 127.43532005781522
z" fill="none" stroke="none"></path>
<circle cx="0" cy="0" r="1.860762479690451" fill="#353535" opacity="0.9">
  <animateMotion begin="-9.554761971050144s" dur="20s" repeatCount="indefinite">
    <mpath xlink:href="#path20"></mpath>
  </animateMotion>
</circle><path id="path21" d="M 96.54124122849674 814.8272227462473
c 0 25.765273198362824 -6.304268974067498 7.400663578253152 -13.704932552320649 7.400663578253152
S 69.13137612385546 840.5924959446102 69.13137612385546 814.8272227462473
s 6.304268974067498 -7.400663578253152 13.704932552320649 -7.400663578253152
S 96.54124122849674 789.0619495478845 96.54124122849674 814.8272227462473
z" fill="none" stroke="none"></path>
<circle cx="0" cy="0" r="1.455849071574085" fill="#ffffff" opacity="0.9">
  <animateMotion begin="-0.4274220667489148s" dur="20s" repeatCount="indefinite">
    <mpath xlink:href="#path21"></mpath>
  </animateMotion>
</circle><path id="path22" d="M 238.87888911366832 300.56444015644456
c 0 29.107390630666234 -7.122021111758759 8.360633479021153 -15.482654590779912 8.360633479021153
S 207.91357993210852 329.6718307871108 207.91357993210852 300.56444015644456
s 7.122021111758759 -8.360633479021153 15.482654590779912 -8.360633479021153
S 238.87888911366832 271.4570495257783 238.87888911366832 300.56444015644456
z" fill="none" stroke="none"></path>
<circle cx="0" cy="0" r="1.9731411129057972" fill="#d4d4d4" opacity="0.9">
  <animateMotion begin="-4.069412784105522s" dur="20s" repeatCount="indefinite">
    <mpath xlink:href="#path22"></mpath>
  </animateMotion>
</circle><path id="path23" d="M 108.88835702685071 316.8313171827175
c 0 37.42579204709644 -9.157374649821467 10.749961545442593 -19.90733619526406 10.749961545442593
S 69.07368463632258 354.2571092298139 69.07368463632258 316.8313171827175
s 9.157374649821467 -10.749961545442593 19.90733619526406 -10.749961545442593
S 108.88835702685071 279.4055251356211 108.88835702685071 316.8313171827175
z" fill="none" stroke="none"></path>
<circle cx="0" cy="0" r="1.438027888577346" fill="#d4d4d4" opacity="0.9">
  <animateMotion begin="-11.63838108760424s" dur="20s" repeatCount="indefinite">
    <mpath xlink:href="#path23"></mpath>
  </animateMotion>
</circle><path id="path24" d="M 320.62915902136837 225.3570253161117
c 0 30.270369753311225 -7.406579833257002 8.694680673823438 -16.10126050708044 8.694680673823438
S 288.4266380072075 255.62739506942293 288.4266380072075 225.3570253161117
s 7.406579833257002 -8.694680673823438 16.10126050708044 -8.694680673823438
S 320.62915902136837 195.08665556280047 320.62915902136837 225.3570253161117
z" fill="none" stroke="none"></path>
<circle cx="0" cy="0" r="1.350752619223477" fill="#ffffff" opacity="0.9">
  <animateMotion begin="-3.6369233187519034s" dur="20s" repeatCount="indefinite">
    <mpath xlink:href="#path24"></mpath>
  </animateMotion>
</circle><path id="path25" d="M 1850.1242588502278 26.21294043163087
c 0 29.64880858298641 -7.254495717113695 8.516147146176948 -15.770642863290643 8.516147146176948
S 1818.5829731236463 55.861749014617274 1818.5829731236463 26.21294043163087
s 7.254495717113695 -8.516147146176948 15.770642863290643 -8.516147146176948
S 1850.1242588502278 -3.435868151355539 1850.1242588502278 26.21294043163087
z" fill="none" stroke="none"></path>
<circle cx="0" cy="0" r="1.643599249107063" fill="#d4d4d4" opacity="0.9">
  <animateMotion begin="-2.092206290379921s" dur="20s" repeatCount="indefinite">
    <mpath xlink:href="#path25"></mpath>
  </animateMotion>
</circle><path id="path26" d="M 1197.023881849187 829.6225233466268
c 0 35.9799496264725 -8.803604695839015 10.334666382071887 -19.1382710779109 10.334666382071887
S 1158.7473396933651 865.6024729730993 1158.7473396933651 829.6225233466268
s 8.803604695839015 -10.334666382071887 19.1382710779109 -10.334666382071887
S 1197.023881849187 793.6425737201544 1197.023881849187 829.6225233466268
z" fill="none" stroke="none"></path>
<circle cx="0" cy="0" r="1.2020563184096835" fill="#9b9b9b" opacity="0.9">
  <animateMotion begin="-1.2456639685281123s" dur="20s" repeatCount="indefinite">
    <mpath xlink:href="#path26"></mpath>
  </animateMotion>
</circle><path id="path27" d="M 1714.9073995198307 197.65790283418147
c 0 30.442953551705877 -7.448807783928033 8.744252615915517 -16.19306039984355 8.744252615915517
S 1682.5212787201438 228.10085638588734 1682.5212787201438 197.65790283418147
s 7.448807783928033 -8.744252615915517 16.19306039984355 -8.744252615915517
S 1714.9073995198307 167.2149492824756 1714.9073995198307 197.65790283418147
z" fill="none" stroke="none"></path>
<circle cx="0" cy="0" r="1.4571366430678419" fill="#9b9b9b" opacity="0.9">
  <animateMotion begin="-10.980666284813054s" dur="20s" repeatCount="indefinite">
    <mpath xlink:href="#path27"></mpath>
  </animateMotion>
</circle><path id="path28" d="M 1412.3129304968154 2.2666840855125203
c 0 19.58633719044874 -4.7924016529821385 5.625862810022511 -10.41826446300465 5.625862810022511
S 1391.4764015708063 21.85302127596126 1391.4764015708063 2.2666840855125203
s 4.7924016529821385 -5.625862810022511 10.41826446300465 -5.625862810022511
S 1412.3129304968154 -17.319653104936222 1412.3129304968154 2.2666840855125203
z" fill="none" stroke="none"></path>
<circle cx="0" cy="0" r="1.3278764815105961" fill="#d4d4d4" opacity="0.9">
  <animateMotion begin="-7.710163235090741s" dur="20s" repeatCount="indefinite">
    <mpath xlink:href="#path28"></mpath>
  </animateMotion>
</circle><path id="path29" d="M 1228.4229374156268 785.1797819808338
c 0 35.62721666597836 -8.717297694867044 10.233349467887402 -18.950647162754446 10.233349467887402
S 1190.521643090118 820.8069986468122 1190.521643090118 785.1797819808338
s 8.717297694867044 -10.233349467887402 18.950647162754446 -10.233349467887402
S 1228.4229374156268 749.5525653148554 1228.4229374156268 785.1797819808338
z" fill="none" stroke="none"></path>
<circle cx="0" cy="0" r="1.2647309936837763" fill="#666666" opacity="0.9">
  <animateMotion begin="-13.477436821433688s" dur="20s" repeatCount="indefinite">
    <mpath xlink:href="#path29"></mpath>
  </animateMotion>
</circle><path id="path30" d="M 365.90490950436856 121.26398844729673
c 0 29.380723910986926 -7.188900531411694 8.43914410209199 -15.628044633503684 8.43914410209199
S 334.6488202373612 150.64471235828364 334.6488202373612 121.26398844729673
s 7.188900531411694 -8.43914410209199 15.628044633503684 -8.43914410209199
S 365.90490950436856 91.8832645363098 365.90490950436856 121.26398844729673
z" fill="none" stroke="none"></path>
<circle cx="0" cy="0" r="1.4168112036653207" fill="#353535" opacity="0.9">
  <animateMotion begin="-14.073492351850167s" dur="20s" repeatCount="indefinite">
    <mpath xlink:href="#path30"></mpath>
  </animateMotion>
</circle><path id="path31" d="M 506.86898474920037 489.17039691082414
c 0 21.815023915238573 -5.337718617558374 6.2660175075685265 -11.6037361251269 6.2660175075685265
S 483.6615124989466 510.9854208260627 483.6615124989466 489.17039691082414
s 5.337718617558374 -6.2660175075685265 11.6037361251269 -6.2660175075685265
S 506.86898474920037 467.3553729955856 506.86898474920037 489.17039691082414
z" fill="none" stroke="none"></path>
<circle cx="0" cy="0" r="1.9311076833000598" fill="#9b9b9b" opacity="0.9">
  <animateMotion begin="-13.445271533891212s" dur="20s" repeatCount="indefinite">
    <mpath xlink:href="#path31"></mpath>
  </animateMotion>
</circle><path id="path32" d="M 1309.5055984581224 503.3285778651246
c 0 36.324397771509354 -8.88788456111399 10.433603615220772 -19.32148817633476 10.433603615220772
S 1270.862622105453 539.652975636634 1270.862622105453 503.3285778651246
s 8.88788456111399 -10.433603615220772 19.32148817633476 -10.433603615220772
S 1309.5055984581224 467.0041800936152 1309.5055984581224 503.3285778651246
z" fill="none" stroke="none"></path>
<circle cx="0" cy="0" r="1.8862225666487484" fill="#ffffff" opacity="0.9">
  <animateMotion begin="-4.324483685215741s" dur="20s" repeatCount="indefinite">
    <mpath xlink:href="#path32"></mpath>
  </animateMotion>
</circle><path id="path33" d="M 513.5587689951699 332.526952240612
c 0 36.99045302128648 -9.05085552648499 10.624917357178031 -19.675772883663022 10.624917357178031
S 474.2072232278439 369.5174052618985 474.2072232278439 332.526952240612
s 9.05085552648499 -10.624917357178031 19.675772883663022 -10.624917357178031
S 513.5587689951699 295.5364992193255 513.5587689951699 332.526952240612
z" fill="none" stroke="none"></path>
<circle cx="0" cy="0" r="1.3076907986544337" fill="#353535" opacity="0.9">
  <animateMotion begin="-5.349953873564526s" dur="20s" repeatCount="indefinite">
    <mpath xlink:href="#path33"></mpath>
  </animateMotion>
</circle><path id="path34" d="M 1450.380475821674 548.3254726596082
c 0 32.08600116460192 -7.85083007218983 9.216191823875018 -17.067021896064848 9.216191823875018
S 1416.2464320295442 580.4114738242101 1416.2464320295442 548.3254726596082
s 7.85083007218983 -9.216191823875018 17.067021896064848 -9.216191823875018
S 1450.380475821674 516.2394714950062 1450.380475821674 548.3254726596082
z" fill="none" stroke="none"></path>
<circle cx="0" cy="0" r="1.9794103103651917" fill="#9b9b9b" opacity="0.9">
  <animateMotion begin="-11.60360494863269s" dur="20s" repeatCount="indefinite">
    <mpath xlink:href="#path34"></mpath>
  </animateMotion>
</circle><path id="path35" d="M 1670.4401369235989 1052.7769897391852
c 0 31.736998909510394 -7.7654359033908404 9.1159464952849 -16.88138239867574 9.1159464952849
S 1636.6773721262475 1084.5139886486957 1636.6773721262475 1052.7769897391852
s 7.7654359033908404 -9.1159464952849 16.88138239867574 -9.1159464952849
S 1670.4401369235989 1021.0399908296748 1670.4401369235989 1052.7769897391852
z" fill="none" stroke="none"></path>
<circle cx="0" cy="0" r="1.6879730823969443" fill="#353535" opacity="0.9">
  <animateMotion begin="-7.499645898944456s" dur="20s" repeatCount="indefinite">
    <mpath xlink:href="#path35"></mpath>
  </animateMotion>
</circle><path id="path36" d="M 1755.458889264473 162.39702179360285
c 0 23.42467354893642 -5.731569059846144 6.7283636789498225 -12.459932738795967 6.7283636789498225
S 1730.5390237868812 185.82169534253927 1730.5390237868812 162.39702179360285
s 5.731569059846144 -6.7283636789498225 12.459932738795967 -6.7283636789498225
S 1755.458889264473 138.97234824466642 1755.458889264473 162.39702179360285
z" fill="none" stroke="none"></path>
<circle cx="0" cy="0" r="1.0841240565539243" fill="#666666" opacity="0.9">
  <animateMotion begin="-5.752967665603883s" dur="20s" repeatCount="indefinite">
    <mpath xlink:href="#path36"></mpath>
  </animateMotion>
</circle><path id="path37" d="M 1516.498374818179 263.4193485729906
c 0 22.373108180540488 -5.474271150557778 6.426318307176523 -11.9005894577343 6.426318307176523
S 1492.6971959027105 285.7924567535311 1492.6971959027105 263.4193485729906
s 5.474271150557778 -6.426318307176523 11.9005894577343 -6.426318307176523
S 1516.498374818179 241.0462403924501 1516.498374818179 263.4193485729906
z" fill="none" stroke="none"></path>
<circle cx="0" cy="0" r="1.1307149296504155" fill="#9b9b9b" opacity="0.9">
  <animateMotion begin="-5.921635005646242s" dur="20s" repeatCount="indefinite">
    <mpath xlink:href="#path37"></mpath>
  </animateMotion>
</circle><path id="path38" d="M 1829.7488903896535 1036.672601091293
c 0 27.09434521125645 -6.629467445307428 7.782418305360895 -14.411885750668322 7.782418305360895
S 1800.925118888317 1063.7669463025495 1800.925118888317 1036.672601091293
s 6.629467445307428 -7.782418305360895 14.411885750668322 -7.782418305360895
S 1829.7488903896535 1009.5782558800365 1829.7488903896535 1036.672601091293
z" fill="none" stroke="none"></path>
<circle cx="0" cy="0" r="1.69351518361207" fill="#666666" opacity="0.9">
  <animateMotion begin="-1.4232113032328941s" dur="20s" repeatCount="indefinite">
    <mpath xlink:href="#path38"></mpath>
  </animateMotion>
</circle><path id="path39" d="M 1836.8467974290154 917.2398657473607
c 0 20.567580432631914 -5.032493084580149 5.9077092732027845 -10.940202357782933 5.9077092732027845
S 1814.9663927134495 937.8074461799926 1814.9663927134495 917.2398657473607
s 5.032493084580149 -5.9077092732027845 10.940202357782933 -5.9077092732027845
S 1836.8467974290154 896.6722853147288 1836.8467974290154 917.2398657473607
z" fill="none" stroke="none"></path>
<circle cx="0" cy="0" r="1.1402760983864029" fill="#ffffff" opacity="0.9">
  <animateMotion begin="-3.5829544795050206s" dur="20s" repeatCount="indefinite">
    <mpath xlink:href="#path39"></mpath>
  </animateMotion>
</circle><path id="path40" d="M 306.63981983287465 255.9720512736385
c 0 18.992089859212673 -4.647000710232888 5.45517474679513 -10.102175457028018 5.45517474679513
S 286.43546891881863 274.9641411328512 286.43546891881863 255.9720512736385
s 4.647000710232888 -5.45517474679513 10.102175457028018 -5.45517474679513
S 306.63981983287465 236.97996141442582 306.63981983287465 255.9720512736385
z" fill="none" stroke="none"></path>
<circle cx="0" cy="0" r="1.0518520802446258" fill="#9b9b9b" opacity="0.9">
  <animateMotion begin="-11.725872884726503s" dur="20s" repeatCount="indefinite">
    <mpath xlink:href="#path40"></mpath>
  </animateMotion>
</circle><path id="path41" d="M 919.238544387115 398.45532905094694
c 0 36.48855696811983 -8.928051173050596 10.480755724885483 -19.40880689793608 10.480755724885483
S 880.4209305912428 434.9438860190668 880.4209305912428 398.45532905094694
s 8.928051173050596 -10.480755724885483 19.40880689793608 -10.480755724885483
S 919.238544387115 361.9667720828271 919.238544387115 398.45532905094694
z" fill="none" stroke="none"></path>
<circle cx="0" cy="0" r="1.0274681361896931" fill="#9b9b9b" opacity="0.9">
  <animateMotion begin="-16.090881567326626s" dur="20s" repeatCount="indefinite">
    <mpath xlink:href="#path41"></mpath>
  </animateMotion>
</circle><path id="path42" d="M 1598.7449161102245 475.0916181555592
c 0 31.868823980190818 -7.797690973876476 9.1538111432463 -16.951502117122775 9.1538111432463
S 1564.841911875979 506.96044213575004 1564.841911875979 475.0916181555592
s 7.797690973876476 -9.1538111432463 16.951502117122775 -9.1538111432463
S 1598.7449161102245 443.2227941753684 1598.7449161102245 475.0916181555592
z" fill="none" stroke="none"></path>
<circle cx="0" cy="0" r="1.549099568939152" fill="#d4d4d4" opacity="0.9">
  <animateMotion begin="-10.675777694401134s" dur="20s" repeatCount="indefinite">
    <mpath xlink:href="#path42"></mpath>
  </animateMotion>
</circle><path id="path43" d="M 331.9061246872162 1042.240636122289
c 0 26.077196582341127 -6.38059065312602 7.490258592800111 -13.87084924592613 7.490258592800111
S 304.16442619536394 1068.3178327046303 304.16442619536394 1042.240636122289
s 6.38059065312602 -7.490258592800111 13.87084924592613 -7.490258592800111
S 331.9061246872162 1016.163439539948 331.9061246872162 1042.240636122289
z" fill="none" stroke="none"></path>
<circle cx="0" cy="0" r="1.772753826333445" fill="#d4d4d4" opacity="0.9">
  <animateMotion begin="-2.405712041268311s" dur="20s" repeatCount="indefinite">
    <mpath xlink:href="#path43"></mpath>
  </animateMotion>
</circle><path id="path44" d="M 723.3858502876342 707.2921856109009
c 0 21.378878402663908 -5.231002162353935 6.140741668850271 -11.371743831204206 6.140741668850271
S 700.6423626252258 728.6710640135648 700.6423626252258 707.2921856109009
s 5.231002162353935 -6.140741668850271 11.371743831204206 -6.140741668850271
S 723.3858502876342 685.913307208237 723.3858502876342 707.2921856109009
z" fill="none" stroke="none"></path>
<circle cx="0" cy="0" r="1.9182200749207832" fill="#666666" opacity="0.9">
  <animateMotion begin="-7.143353544921411s" dur="20s" repeatCount="indefinite">
    <mpath xlink:href="#path44"></mpath>
  </animateMotion>
</circle><path id="path45" d="M 299.70008220301946 979.2548499484799
c 0 25.14413567701267 -6.152288516715865 7.222251737014277 -13.374540253730142 7.222251737014277
S 272.9510016955592 1004.3989856254925 272.9510016955592 979.2548499484799
s 6.152288516715865 -7.222251737014277 13.374540253730142 -7.222251737014277
S 299.70008220301946 954.1107142714673 299.70008220301946 979.2548499484799
z" fill="none" stroke="none"></path>
<circle cx="0" cy="0" r="1.1750947642442091" fill="#ffffff" opacity="0.9">
  <animateMotion begin="-4.896797993147772s" dur="20s" repeatCount="indefinite">
    <mpath xlink:href="#path45"></mpath>
  </animateMotion>
</circle><path id="path46" d="M 1776.2981034649708 31.25083167207289
c 0 33.96763907034461 -8.311230836360915 9.756662286162815 -18.067893122523728 9.756662286162815
S 1740.1623172199236 65.21847074241751 1740.1623172199236 31.25083167207289
s 8.311230836360915 -9.756662286162815 18.067893122523728 -9.756662286162815
S 1776.2981034649708 -2.716807398271719 1776.2981034649708 31.25083167207289
z" fill="none" stroke="none"></path>
<circle cx="0" cy="0" r="1.1441835850499276" fill="#9b9b9b" opacity="0.9">
  <animateMotion begin="-17.690670637846665s" dur="20s" repeatCount="indefinite">
    <mpath xlink:href="#path46"></mpath>
  </animateMotion>
</circle><path id="path47" d="M 592.6030814626235 981.0584662807452
c 0 21.50832077788055 -5.262674232885666 6.177921925561435 -11.4405961584471 6.177921925561435
S 569.7218891457294 1002.5667870586257 569.7218891457294 981.0584662807452
s 5.262674232885666 -6.177921925561435 11.4405961584471 -6.177921925561435
S 592.6030814626235 959.5501455028647 592.6030814626235 981.0584662807452
z" fill="none" stroke="none"></path>
<circle cx="0" cy="0" r="1.42220411127389" fill="#9b9b9b" opacity="0.9">
  <animateMotion begin="-19.97788989963s" dur="20s" repeatCount="indefinite">
    <mpath xlink:href="#path47"></mpath>
  </animateMotion>
</circle><path id="path48" d="M 1658.3769062367433 905.4042893088935
c 0 30.980409346608802 -7.580312925234068 8.898628216579125 -16.47894114181319 8.898628216579125
S 1625.4190239531167 936.3846986555022 1625.4190239531167 905.4042893088935
s 7.580312925234068 -8.898628216579125 16.47894114181319 -8.898628216579125
S 1658.3769062367433 874.4238799622847 1658.3769062367433 905.4042893088935
z" fill="none" stroke="none"></path>
<circle cx="0" cy="0" r="1.0728682616273093" fill="#9b9b9b" opacity="0.9">
  <animateMotion begin="-11.448883109538034s" dur="20s" repeatCount="indefinite">
    <mpath xlink:href="#path48"></mpath>
  </animateMotion>
</circle><path id="path49" d="M 708.1725861429301 213.726456345909
c 0 34.30709126448321 -8.394288288118231 9.854164512138794 -18.248452800257027 9.854164512138794
S 671.675680542416 248.03354761039222 671.675680542416 213.726456345909
s 8.394288288118231 -9.854164512138794 18.248452800257027 -9.854164512138794
S 708.1725861429301 179.4193650814258 708.1725861429301 213.726456345909
z" fill="none" stroke="none"></path>
<circle cx="0" cy="0" r="1.1463186778863874" fill="#ffffff" opacity="0.9">
  <animateMotion begin="-13.314001000475226s" dur="20s" repeatCount="indefinite">
    <mpath xlink:href="#path49"></mpath>
  </animateMotion>
</circle><path id="path50" d="M 1360.8602944996414 401.1188264297116
c 0 19.27674491333268 -4.716650351134591 5.536937368723217 -10.253587719857808 5.536937368723217
S 1340.353119059926 420.39557134304425 1340.353119059926 401.1188264297116
s 4.716650351134591 -5.536937368723217 10.253587719857808 -5.536937368723217
S 1360.8602944996414 381.8420815163789 1360.8602944996414 401.1188264297116
z" fill="none" stroke="none"></path>
<circle cx="0" cy="0" r="1.0432963480746023" fill="#ffffff" opacity="0.9">
  <animateMotion begin="-2.456548105363572s" dur="20s" repeatCount="indefinite">
    <mpath xlink:href="#path50"></mpath>
  </animateMotion>
</circle><path id="path51" d="M 1192.874326744378 191.35530424784594
c 0 27.638152140740303 -6.762526587627946 7.938618168084981 -14.701144755712928 7.938618168084981
S 1163.4720372329523 218.99345638858625 1163.4720372329523 191.35530424784594
s 6.762526587627946 -7.938618168084981 14.701144755712928 -7.938618168084981
S 1192.874326744378 163.71715210710562 1192.874326744378 191.35530424784594
z" fill="none" stroke="none"></path>
<circle cx="0" cy="0" r="1.809552325116763" fill="#666666" opacity="0.9">
  <animateMotion begin="-4.730669378648336s" dur="20s" repeatCount="indefinite">
    <mpath xlink:href="#path51"></mpath>
  </animateMotion>
</circle><path id="path52" d="M 470.3580565746535 1066.3146986302143
c 0 19.60425943814679 -4.796786883801874 5.631010689680462 -10.427797573482335 5.631010689680462
S 449.50246142768884 1085.918958068361 449.50246142768884 1066.3146986302143
s 4.796786883801874 -5.631010689680462 10.427797573482335 -5.631010689680462
S 470.3580565746535 1046.7104391920675 470.3580565746535 1066.3146986302143
z" fill="none" stroke="none"></path>
<circle cx="0" cy="0" r="1.3863892939935323" fill="#353535" opacity="0.9">
  <animateMotion begin="-14.818910337325782s" dur="20s" repeatCount="indefinite">
    <mpath xlink:href="#path52"></mpath>
  </animateMotion>
</circle><path id="path53" d="M 719.9895391485278 260.5967255994929
c 0 22.81842930876735 -5.583232703209032 6.554229695071474 -12.137462398280505 6.554229695071474
S 695.7146143519668 283.41515490826026 695.7146143519668 260.5967255994929
s 5.583232703209032 -6.554229695071474 12.137462398280505 -6.554229695071474
S 719.9895391485278 237.77829629072556 719.9895391485278 260.5967255994929
z" fill="none" stroke="none"></path>
<circle cx="0" cy="0" r="1.4323052517761856" fill="#9b9b9b" opacity="0.9">
  <animateMotion begin="-16.7191331628878s" dur="20s" repeatCount="indefinite">
    <mpath xlink:href="#path53"></mpath>
  </animateMotion>
</circle><path id="path54" d="M 913.542380231016 532.9268864942715
c 0 37.30426847940951 -9.127640159855517 10.715055839830391 -19.84269599968591 10.715055839830391
S 873.8569882316441 570.231154973681 873.8569882316441 532.9268864942715
s 9.127640159855517 -10.715055839830391 19.84269599968591 -10.715055839830391
S 913.542380231016 495.6226180148619 913.542380231016 532.9268864942715
z" fill="none" stroke="none"></path>
<circle cx="0" cy="0" r="1.9539605718707156" fill="#ffffff" opacity="0.9">
  <animateMotion begin="-16.420299665601803s" dur="20s" repeatCount="indefinite">
    <mpath xlink:href="#path54"></mpath>
  </animateMotion>
</circle><path id="path55" d="M 211.32106055332815 596.140163226276
c 0 30.12459143480511 -7.3709106702182705 8.652808178082319 -16.02371884830059 8.652808178082319
S 179.27362285672694 626.264754661081 179.27362285672694 596.140163226276
s 7.3709106702182705 -8.652808178082319 16.02371884830059 -8.652808178082319
S 211.32106055332815 566.0155717914708 211.32106055332815 596.140163226276
z" fill="none" stroke="none"></path>
<circle cx="0" cy="0" r="1.5467308233480896" fill="#9b9b9b" opacity="0.9">
  <animateMotion begin="-10.24665854465535s" dur="20s" repeatCount="indefinite">
    <mpath xlink:href="#path55"></mpath>
  </animateMotion>
</circle><path id="path56" d="M 1256.550819329198 533.1177369889404
c 0 27.030013500766287 -6.613726707634304 7.7639400480924445 -14.377666755726748 7.7639400480924445
S 1227.7954858177445 560.1477504897066 1227.7954858177445 533.1177369889404
s 6.613726707634304 -7.7639400480924445 14.377666755726748 -7.7639400480924445
S 1256.550819329198 506.08772348817405 1256.550819329198 533.1177369889404
z" fill="none" stroke="none"></path>
<circle cx="0" cy="0" r="1.5062958738329324" fill="#353535" opacity="0.9">
  <animateMotion begin="-9.095212664426162s" dur="20s" repeatCount="indefinite">
    <mpath xlink:href="#path56"></mpath>
  </animateMotion>
</circle><path id="path57" d="M 428.47322831811715 160.4572200450917
c 0 28.438415110557212 -6.958335612157614 8.168480936011115 -15.12681654816873 8.168480936011115
S 398.2195952217797 188.8956351556489 398.2195952217797 160.4572200450917
s 6.958335612157614 -8.168480936011115 15.12681654816873 -8.168480936011115
S 428.47322831811715 132.0188049345345 428.47322831811715 160.4572200450917
z" fill="none" stroke="none"></path>
<circle cx="0" cy="0" r="1.3281891536925685" fill="#ffffff" opacity="0.9">
  <animateMotion begin="-0.7095577926489138s" dur="20s" repeatCount="indefinite">
    <mpath xlink:href="#path57"></mpath>
  </animateMotion>
</circle><path id="path58" d="M 1260.9946582803204 1001.9515077103957
c 0 35.825528737203655 -8.76582086123068 10.29031144579254 -19.05613230702322 10.29031144579254
S 1222.8823936662739 1037.7770364475994 1222.8823936662739 1001.9515077103957
s 8.76582086123068 -10.29031144579254 19.05613230702322 -10.29031144579254
S 1260.9946582803204 966.1259789731921 1260.9946582803204 1001.9515077103957
z" fill="none" stroke="none"></path>
<circle cx="0" cy="0" r="1.5682001068372893" fill="#d4d4d4" opacity="0.9">
  <animateMotion begin="-4.24158690716526s" dur="20s" repeatCount="indefinite">
    <mpath xlink:href="#path58"></mpath>
  </animateMotion>
</circle><path id="path59" d="M 1610.9104164220964 661.7534484262253
c 0 33.660586670860816 -8.236100993934029 9.668466384183427 -17.904567378117456 9.668466384183427
S 1575.1012816658615 695.4140350970861 1575.1012816658615 661.7534484262253
s 8.236100993934029 -9.668466384183427 17.904567378117456 -9.668466384183427
S 1610.9104164220964 628.0928617553645 1610.9104164220964 661.7534484262253
z" fill="none" stroke="none"></path>
<circle cx="0" cy="0" r="1.7178403017290045" fill="#ffffff" opacity="0.9">
  <animateMotion begin="-12.822398956591199s" dur="20s" repeatCount="indefinite">
    <mpath xlink:href="#path59"></mpath>
  </animateMotion>
</circle><path id="path60" d="M 358.1272306176073 74.60693998556408
c 0 20.10983194499283 -4.920490795051436 5.7762283246256 -10.696719119677036 5.7762283246256
S 336.73379237825327 94.71677193055692 336.73379237825327 74.60693998556408
s 4.920490795051436 -5.7762283246256 10.696719119677036 -5.7762283246256
S 358.1272306176073 54.49710804057125 358.1272306176073 74.60693998556408
z" fill="none" stroke="none"></path>
<circle cx="0" cy="0" r="1.8333322739125069" fill="#ffffff" opacity="0.9">
  <animateMotion begin="-13.49377531432781s" dur="20s" repeatCount="indefinite">
    <mpath xlink:href="#path60"></mpath>
  </animateMotion>
</circle><path id="path61" d="M 1239.939725526841 259.40090186022536
c 0 22.733010621390246 -5.562332386084846 6.52969454018656 -12.092026926271407 6.52969454018656
S 1215.755671674298 282.1339124816156 1215.755671674298 259.40090186022536
s 5.562332386084846 -6.52969454018656 12.092026926271407 -6.52969454018656
S 1239.939725526841 236.66789123883513 1239.939725526841 259.40090186022536
z" fill="none" stroke="none"></path>
<circle cx="0" cy="0" r="1.7662291765215195" fill="#9b9b9b" opacity="0.9">
  <animateMotion begin="-2.8700774372354054s" dur="20s" repeatCount="indefinite">
    <mpath xlink:href="#path61"></mpath>
  </animateMotion>
</circle><path id="path62" d="M 708.8437943868576 990.6821258977978
c 0 28.316123760470568 -6.92841326054067 8.13335469715644 -15.06176795769711 8.13335469715644
S 678.7202584714632 1018.9982496582684 678.7202584714632 990.6821258977978
s 6.92841326054067 -8.13335469715644 15.06176795769711 -8.13335469715644
S 708.8437943868576 962.3660021373273 708.8437943868576 990.6821258977978
z" fill="none" stroke="none"></path>
<circle cx="0" cy="0" r="1.4848726061553985" fill="#353535" opacity="0.9">
  <animateMotion begin="-4.479760064111695s" dur="20s" repeatCount="indefinite">
    <mpath xlink:href="#path62"></mpath>
  </animateMotion>
</circle><path id="path63" d="M 1890.1327819346334 528.5685628572867
c 0 30.934643540676312 -7.569114908888884 8.88548271913043 -16.454597628019314 8.88548271913043
S 1857.2235866785945 559.503206397963 1857.2235866785945 528.5685628572867
s 7.569114908888884 -8.88548271913043 16.454597628019314 -8.88548271913043
S 1890.1327819346334 497.6339193166104 1890.1327819346334 528.5685628572867
z" fill="none" stroke="none"></path>
<circle cx="0" cy="0" r="1.7348208663238138" fill="#353535" opacity="0.9">
  <animateMotion begin="-6.043767427298379s" dur="20s" repeatCount="indefinite">
    <mpath xlink:href="#path63"></mpath>
  </animateMotion>
</circle><path id="path64" d="M 1580.74183194478 187.2142710774009
c 0 28.900233386254463 -7.071333700892049 8.30113086626458 -15.37246456715663 8.30113086626458
S 1549.9969028104667 216.11450446365535 1549.9969028104667 187.2142710774009
s 7.071333700892049 -8.30113086626458 15.37246456715663 -8.30113086626458
S 1580.74183194478 158.31403769114644 1580.74183194478 187.2142710774009
z" fill="none" stroke="none"></path>
<circle cx="0" cy="0" r="1.0613457843972" fill="#9b9b9b" opacity="0.9">
  <animateMotion begin="-18.186693379619395s" dur="20s" repeatCount="indefinite">
    <mpath xlink:href="#path64"></mpath>
  </animateMotion>
</circle><path id="path65" d="M 1309.5742970059819 371.72238970860906
c 0 20.567827458552422 -5.032553527092613 5.907780227456548 -10.940333754549162 5.907780227456548
S 1287.6936294968837 392.2902171671615 1287.6936294968837 371.72238970860906
s 5.032553527092613 -5.907780227456548 10.940333754549162 -5.907780227456548
S 1309.5742970059819 351.15456225005664 1309.5742970059819 371.72238970860906
z" fill="none" stroke="none"></path>
<circle cx="0" cy="0" r="1.0680364468697083" fill="#d4d4d4" opacity="0.9">
  <animateMotion begin="-11.580506274495391s" dur="20s" repeatCount="indefinite">
    <mpath xlink:href="#path65"></mpath>
  </animateMotion>
</circle><path id="path66" d="M 990.884059501798 675.1257503301663
c 0 24.27179597802836 -5.938843696751619 6.97168607879538 -12.910529775547 6.97168607879538
S 965.0629999507039 699.3975463081946 965.0629999507039 675.1257503301663
s 5.938843696751619 -6.97168607879538 12.910529775547 -6.97168607879538
S 990.884059501798 650.853954352138 990.884059501798 675.1257503301663
z" fill="none" stroke="none"></path>
<circle cx="0" cy="0" r="1.0985437245812322" fill="#ffffff" opacity="0.9">
  <animateMotion begin="-18.005351461818847s" dur="20s" repeatCount="indefinite">
    <mpath xlink:href="#path66"></mpath>
  </animateMotion>
</circle><path id="path67" d="M 193.0146549173712 776.4250405202289
c 0 30.93937222105151 -7.5702719264274965 8.88684095711054 -16.457112883538038 8.88684095711054
S 160.10042915029513 807.3644127412804 160.10042915029513 776.4250405202289
s 7.5702719264274965 -8.88684095711054 16.457112883538038 -8.88684095711054
S 193.0146549173712 745.4856682991774 193.0146549173712 776.4250405202289
z" fill="none" stroke="none"></path>
<circle cx="0" cy="0" r="1.2263767167541382" fill="#666666" opacity="0.9">
  <animateMotion begin="-0.75804150607512s" dur="20s" repeatCount="indefinite">
    <mpath xlink:href="#path67"></mpath>
  </animateMotion>
</circle><path id="path68" d="M 801.111178985946 961.5376503895777
c 0 24.108950387255316 -5.898998499009278 6.9249112814456755 -12.823909780454954 6.9249112814456755
S 775.4633594250361 985.646600776833 775.4633594250361 961.5376503895777
s 5.898998499009278 -6.9249112814456755 12.823909780454954 -6.9249112814456755
S 801.111178985946 937.4287000023224 801.111178985946 961.5376503895777
z" fill="none" stroke="none"></path>
<circle cx="0" cy="0" r="1.7952677175427567" fill="#666666" opacity="0.9">
  <animateMotion begin="-2.3523868930063285s" dur="20s" repeatCount="indefinite">
    <mpath xlink:href="#path68"></mpath>
  </animateMotion>
</circle><path id="path69" d="M 1270.7659445063543 907.6786387477293
c 0 25.631479405916494 -6.271532195064673 7.36223344638027 -13.633765641444944 7.36223344638027
S 1243.4984132234642 933.3101181536458 1243.4984132234642 907.6786387477293
s 6.271532195064673 -7.36223344638027 13.633765641444944 -7.36223344638027
S 1270.7659445063543 882.0471593418129 1270.7659445063543 907.6786387477293
z" fill="none" stroke="none"></path>
<circle cx="0" cy="0" r="1.1895294306657551" fill="#9b9b9b" opacity="0.9">
  <animateMotion begin="-12.722231914893714s" dur="20s" repeatCount="indefinite">
    <mpath xlink:href="#path69"></mpath>
  </animateMotion>
</circle><path id="path70" d="M 1226.9633966596505 442.77140144611013
c 0 34.726079579113545 -8.49680670552778 9.974512219532613 -18.471318925060395 9.974512219532613
S 1190.0207588095298 477.4974810252237 1190.0207588095298 442.77140144611013
s 8.49680670552778 -9.974512219532613 18.471318925060395 -9.974512219532613
S 1226.9633966596505 408.0453218669966 1226.9633966596505 442.77140144611013
z" fill="none" stroke="none"></path>
<circle cx="0" cy="0" r="1.95775745548378" fill="#d4d4d4" opacity="0.9">
  <animateMotion begin="-4.219713210441038s" dur="20s" repeatCount="indefinite">
    <mpath xlink:href="#path70"></mpath>
  </animateMotion>
</circle><path id="path71" d="M 444.8607400231749 220.16067942547298
c 0 33.05294533051199 -8.08742279363591 9.493931105572592 -17.5813538992085 9.493931105572592
S 409.69803222475787 253.21362475598497 409.69803222475787 220.16067942547298
s 8.08742279363591 -9.493931105572592 17.5813538992085 -9.493931105572592
S 444.8607400231749 187.107734094961 444.8607400231749 220.16067942547298
z" fill="none" stroke="none"></path>
<circle cx="0" cy="0" r="1.855736339366518" fill="#ffffff" opacity="0.9">
  <animateMotion begin="-11.111851977281514s" dur="20s" repeatCount="indefinite">
    <mpath xlink:href="#path71"></mpath>
  </animateMotion>
</circle><path id="path72" d="M 245.01873400375254 934.8253639428965
c 0 19.998850497776544 -4.89333576009426 5.744350674893263 -10.637686434987524 5.744350674893263
S 223.74336113377748 954.824214440673 223.74336113377748 934.8253639428965
s 4.89333576009426 -5.744350674893263 10.637686434987524 -5.744350674893263
S 245.01873400375254 914.82651344512 245.01873400375254 934.8253639428965
z" fill="none" stroke="none"></path>
<circle cx="0" cy="0" r="1.732595762883946" fill="#d4d4d4" opacity="0.9">
  <animateMotion begin="-11.893425833435707s" dur="20s" repeatCount="indefinite">
    <mpath xlink:href="#path72"></mpath>
  </animateMotion>
</circle><path id="path73" d="M 860.7120754500111 679.3356292339087
c 0 29.609580587258268 -7.244897377733405 8.504879530382695 -15.7497769081161 8.504879530382695
S 829.2125216337788 708.9452098211669 829.2125216337788 679.3356292339087
s 7.244897377733405 -8.504879530382695 15.7497769081161 -8.504879530382695
S 860.7120754500111 649.7260486466504 860.7120754500111 679.3356292339087
z" fill="none" stroke="none"></path>
<circle cx="0" cy="0" r="1.6219613701974276" fill="#d4d4d4" opacity="0.9">
  <animateMotion begin="-2.834005260527359s" dur="20s" repeatCount="indefinite">
    <mpath xlink:href="#path73"></mpath>
  </animateMotion>
</circle><path id="path74" d="M 1932.6587089146121 559.0914687955324
c 0 35.954539438979964 -8.79738730953765 10.327367711196374 -19.124755020734025 10.327367711196374
S 1894.409198873144 595.0460082345123 1894.409198873144 559.0914687955324
s 8.79738730953765 -10.327367711196374 19.124755020734025 -10.327367711196374
S 1932.6587089146121 523.1369293565524 1932.6587089146121 559.0914687955324
z" fill="none" stroke="none"></path>
<circle cx="0" cy="0" r="1.855157201335125" fill="#ffffff" opacity="0.9">
  <animateMotion begin="-7.189696243123951s" dur="20s" repeatCount="indefinite">
    <mpath xlink:href="#path74"></mpath>
  </animateMotion>
</circle><path id="path75" d="M 1100.3168655115344 697.1145559618125
c 0 23.7683853989673 -5.815668767832424 6.827089423107629 -12.642758190940054 6.827089423107629
S 1075.0313491296545 720.8829413607798 1075.0313491296545 697.1145559618125
s 5.815668767832424 -6.827089423107629 12.642758190940054 -6.827089423107629
S 1100.3168655115344 673.3461705628451 1100.3168655115344 697.1145559618125
z" fill="none" stroke="none"></path>
<circle cx="0" cy="0" r="1.6102232392145623" fill="#9b9b9b" opacity="0.9">
  <animateMotion begin="-10.234894075788352s" dur="20s" repeatCount="indefinite">
    <mpath xlink:href="#path75"></mpath>
  </animateMotion>
</circle><path id="path76" d="M 1804.1756863986411 676.9840813531584
c 0 29.310435289131895 -7.171702251596101 8.418954817091077 -15.590657068687177 8.418954817091077
S 1772.9943722612666 706.2945166422903 1772.9943722612666 676.9840813531584
s 7.171702251596101 -8.418954817091077 15.590657068687177 -8.418954817091077
S 1804.1756863986411 647.6736460640266 1804.1756863986411 676.9840813531584
z" fill="none" stroke="none"></path>
<circle cx="0" cy="0" r="1.5102113790564204" fill="#9b9b9b" opacity="0.9">
  <animateMotion begin="-18.915485704464956s" dur="20s" repeatCount="indefinite">
    <mpath xlink:href="#path76"></mpath>
  </animateMotion>
</circle><path id="path77" d="M 1794.2581868939544 479.5402166480681
c 0 32.092864508331566 -7.852509400974744 9.218163209839918 -17.07067261081466 9.218163209839918
S 1760.116841672325 511.63308115639967 1760.116841672325 479.5402166480681
s 7.852509400974744 -9.218163209839918 17.07067261081466 -9.218163209839918
S 1794.2581868939544 447.44735213973655 1794.2581868939544 479.5402166480681
z" fill="none" stroke="none"></path>
<circle cx="0" cy="0" r="1.9129867647125602" fill="#d4d4d4" opacity="0.9">
  <animateMotion begin="-0.17829566245815442s" dur="20s" repeatCount="indefinite">
    <mpath xlink:href="#path77"></mpath>
  </animateMotion>
</circle><path id="path78" d="M 1203.3836002952394 1011.0100588905334
c 0 28.347251938468357 -6.936029729625236 8.14229576956006 -15.078325499185297 8.14229576956006
S 1173.226949296869 1039.3573108290018 1173.226949296869 1011.0100588905334
s 6.936029729625236 -8.14229576956006 15.078325499185297 -8.14229576956006
S 1203.3836002952394 982.662806952065 1203.3836002952394 1011.0100588905334
z" fill="none" stroke="none"></path>
<circle cx="0" cy="0" r="1.0461322202796888" fill="#ffffff" opacity="0.9">
  <animateMotion begin="-9.79685556849919s" dur="20s" repeatCount="indefinite">
    <mpath xlink:href="#path78"></mpath>
  </animateMotion>
</circle><path id="path79" d="M 1690.094419652551 545.3432513487516
c 0 21.508650432516458 -5.262754893062537 6.178016613595153 -11.44077150665769 6.178016613595153
S 1667.2128766392357 566.851901781268 1667.2128766392357 545.3432513487516
s 5.262754893062537 -6.178016613595153 11.44077150665769 -6.178016613595153
S 1690.094419652551 523.8346009162351 1690.094419652551 545.3432513487516
z" fill="none" stroke="none"></path>
<circle cx="0" cy="0" r="1.9226129807233532" fill="#9b9b9b" opacity="0.9">
  <animateMotion begin="-19.102889502038586s" dur="20s" repeatCount="indefinite">
    <mpath xlink:href="#path79"></mpath>
  </animateMotion>
</circle><path id="path80" d="M 970.1467554685869 790.3188410293329
c 0 30.521142948072168 -7.467939231975104 8.766711272318602 -16.234650504293707 8.766711272318602
S 937.6774544599996 820.8399839774052 937.6774544599996 790.3188410293329
s 7.467939231975104 -8.766711272318602 16.234650504293707 -8.766711272318602
S 970.1467554685869 759.7976980812607 970.1467554685869 790.3188410293329
z" fill="none" stroke="none"></path>
<circle cx="0" cy="0" r="1.8382162596309022" fill="#d4d4d4" opacity="0.9">
  <animateMotion begin="-18.429065190809s" dur="20s" repeatCount="indefinite">
    <mpath xlink:href="#path80"></mpath>
  </animateMotion>
</circle><path id="path81" d="M 1778.5324735570869 122.31580670153636
c 0 20.615578534031673 -5.04423730088009 5.921495961902715 -10.965733262782804 5.921495961902715
S 1756.6010070315212 142.93138523556803 1756.6010070315212 122.31580670153636
s 5.04423730088009 -5.921495961902715 10.965733262782804 -5.921495961902715
S 1778.5324735570869 101.70022816750469 1778.5324735570869 122.31580670153636
z" fill="none" stroke="none"></path>
<circle cx="0" cy="0" r="1.3715874385702116" fill="#d4d4d4" opacity="0.9">
  <animateMotion begin="-8.493901750227266s" dur="20s" repeatCount="indefinite">
    <mpath xlink:href="#path81"></mpath>
  </animateMotion>
</circle><path id="path82" d="M 1915.1666678598729 955.7920604274088
c 0 28.204885419035204 -6.901195368487336 8.101403258659047 -15.002598627146384 8.101403258659047
S 1885.16147060558 983.9969458464441 1885.16147060558 955.7920604274088
s 6.901195368487336 -8.101403258659047 15.002598627146384 -8.101403258659047
S 1915.1666678598729 927.5871750083736 1915.1666678598729 955.7920604274088
z" fill="none" stroke="none"></path>
<circle cx="0" cy="0" r="1.8294306397120235" fill="#353535" opacity="0.9">
  <animateMotion begin="-9.358604929542569s" dur="20s" repeatCount="indefinite">
    <mpath xlink:href="#path82"></mpath>
  </animateMotion>
</circle><path id="path83" d="M 1518.4271936157766 492.0811124712976
c 0 31.720850454985825 -7.761484685794403 9.111308109410823 -16.872792795205225 9.111308109410823
S 1484.6816080253661 523.8019629262834 1484.6816080253661 492.0811124712976
s 7.761484685794403 -9.111308109410823 16.872792795205225 -9.111308109410823
S 1518.4271936157766 460.36026201631176 1518.4271936157766 492.0811124712976
z" fill="none" stroke="none"></path>
<circle cx="0" cy="0" r="1.9987062712009775" fill="#666666" opacity="0.9">
  <animateMotion begin="-18.088582412238328s" dur="20s" repeatCount="indefinite">
    <mpath xlink:href="#path83"></mpath>
  </animateMotion>
</circle><path id="path84" d="M 1468.6715281983854 268.74118526553997
c 0 25.65920720464582 -6.278316656455892 7.370197814100396 -13.648514470556288 7.370197814100396
S 1441.3744992572726 294.4003924701858 1441.3744992572726 268.74118526553997
s 6.278316656455892 -7.370197814100396 13.648514470556288 -7.370197814100396
S 1468.6715281983854 243.08197806089416 1468.6715281983854 268.74118526553997
z" fill="none" stroke="none"></path>
<circle cx="0" cy="0" r="1.1030469590494822" fill="#666666" opacity="0.9">
  <animateMotion begin="-19.54536206713156s" dur="20s" repeatCount="indefinite">
    <mpath xlink:href="#path84"></mpath>
  </animateMotion>
</circle><path id="path85" d="M 1043.3413478269538 176.63875749794155
c 0 36.96945973767582 -9.045718871984507 10.618887371460076 -19.66460624344458 10.618887371460076
S 1004.0121353400646 213.60821723561736 1004.0121353400646 176.63875749794155
s 9.045718871984507 -10.618887371460076 19.66460624344458 -10.618887371460076
S 1043.3413478269538 139.66929776026575 1043.3413478269538 176.63875749794155
z" fill="none" stroke="none"></path>
<circle cx="0" cy="0" r="1.3420741224774415" fill="#666666" opacity="0.9">
  <animateMotion begin="-19.78180017388142s" dur="20s" repeatCount="indefinite">
    <mpath xlink:href="#path85"></mpath>
  </animateMotion>
</circle><path id="path86" d="M 980.77090556066 784.7194730502798
c 0 37.08295253933467 -9.073488387284014 10.651486367681235 -19.72497475496525 10.651486367681235
S 941.3209560507295 821.8024255896145 941.3209560507295 784.7194730502798
s 9.073488387284014 -10.651486367681235 19.72497475496525 -10.651486367681235
S 980.77090556066 747.6365205109452 980.77090556066 784.7194730502798
z" fill="none" stroke="none"></path>
<circle cx="0" cy="0" r="1.177191199440724" fill="#666666" opacity="0.9">
  <animateMotion begin="-17.358264664010004s" dur="20s" repeatCount="indefinite">
    <mpath xlink:href="#path86"></mpath>
  </animateMotion>
</circle><path id="path87" d="M 1059.853644094478 742.8637614240329
c 0 35.166182909058215 -8.604491562854669 10.100924878133743 -18.70541644098841 10.100924878133743
S 1022.4428112125014 778.0299443330911 1022.4428112125014 742.8637614240329
s 8.604491562854669 -10.100924878133743 18.70541644098841 -10.100924878133743
S 1059.853644094478 707.6975785149747 1059.853644094478 742.8637614240329
z" fill="none" stroke="none"></path>
<circle cx="0" cy="0" r="1.672754813130569" fill="#d4d4d4" opacity="0.9">
  <animateMotion begin="-18.80392739877754s" dur="20s" repeatCount="indefinite">
    <mpath xlink:href="#path87"></mpath>
  </animateMotion>
</circle><path id="path88" d="M 1138.7380311686059 94.3250927948274
c 0 31.47138864177807 -7.700446157030804 9.03965418434051 -16.740100341371313 9.03965418434051
S 1105.2578304858632 125.79648143660546 1105.2578304858632 94.3250927948274
s 7.700446157030804 -9.03965418434051 16.740100341371313 -9.03965418434051
S 1138.7380311686059 62.85370415304933 1138.7380311686059 94.3250927948274
z" fill="none" stroke="none"></path>
<circle cx="0" cy="0" r="1.356204175438308" fill="#9b9b9b" opacity="0.9">
  <animateMotion begin="-16.284039801435156s" dur="20s" repeatCount="indefinite">
    <mpath xlink:href="#path88"></mpath>
  </animateMotion>
</circle><path id="path89" d="M 535.4631714153301 1054.4989415179452
c 0 25.33071505425432 -6.197940917530312 7.275843685796454 -13.473784603326767 7.275843685796454
S 508.51560220867657 1079.8296565721996 508.51560220867657 1054.4989415179452
s 6.197940917530312 -7.275843685796454 13.473784603326767 -7.275843685796454
S 535.4631714153301 1029.1682264636909 535.4631714153301 1054.4989415179452
z" fill="none" stroke="none"></path>
<circle cx="0" cy="0" r="1.8386101648887914" fill="#ffffff" opacity="0.9">
  <animateMotion begin="-2.089895362869396s" dur="20s" repeatCount="indefinite">
    <mpath xlink:href="#path89"></mpath>
  </animateMotion>
</circle><path id="path90" d="M 589.4277691555046 526.0597690295499
c 0 19.209744078485382 -4.700256529842168 5.517692448075589 -10.217948977917757 5.517692448075589
S 568.991871199669 545.2695131080353 568.991871199669 526.0597690295499
s 4.700256529842168 -5.517692448075589 10.217948977917757 -5.517692448075589
S 589.4277691555046 506.85002495106454 589.4277691555046 526.0597690295499
z" fill="none" stroke="none"></path>
<circle cx="0" cy="0" r="1.0146286051128819" fill="#9b9b9b" opacity="0.9">
  <animateMotion begin="-6.793266305788608s" dur="20s" repeatCount="indefinite">
    <mpath xlink:href="#path90"></mpath>
  </animateMotion>
</circle><path id="path91" d="M 919.8025911315985 1035.6406855444857
c 0 22.59355691665359 -5.528210734925878 6.489638688826032 -12.01784942375191 6.489638688826032
S 895.7668922840946 1058.2342424611393 895.7668922840946 1035.6406855444857
s 5.528210734925878 -6.489638688826032 12.01784942375191 -6.489638688826032
S 919.8025911315985 1013.0471286278321 919.8025911315985 1035.6406855444857
z" fill="none" stroke="none"></path>
<circle cx="0" cy="0" r="1.0661199821755074" fill="#353535" opacity="0.9">
  <animateMotion begin="-16.485837397213633s" dur="20s" repeatCount="indefinite">
    <mpath xlink:href="#path91"></mpath>
  </animateMotion>
</circle><path id="path92" d="M 1221.8008519179923 438.0749530907874
c 0 24.905165496661855 -6.093817089608751 7.1536113660624485 -13.2474284556712 7.1536113660624485
S 1195.3059950066497 462.9801185874493 1195.3059950066497 438.0749530907874
s 6.093817089608751 -7.1536113660624485 13.2474284556712 -7.1536113660624485
S 1221.8008519179923 413.1697875941255 1221.8008519179923 438.0749530907874
z" fill="none" stroke="none"></path>
<circle cx="0" cy="0" r="1.0103318810151203" fill="#ffffff" opacity="0.9">
  <animateMotion begin="-17.48557591080668s" dur="20s" repeatCount="indefinite">
    <mpath xlink:href="#path92"></mpath>
  </animateMotion>
</circle><path id="path93" d="M 1185.0615881902436 244.545803721288
c 0 28.04506947343953 -6.862091466905416 8.055498678541142 -14.917590145446557 8.055498678541142
S 1155.2264078993503 272.5908731947275 1155.2264078993503 244.545803721288
s 6.862091466905416 -8.055498678541142 14.917590145446557 -8.055498678541142
S 1185.0615881902436 216.50073424784847 1185.0615881902436 244.545803721288
z" fill="none" stroke="none"></path>
<circle cx="0" cy="0" r="1.6609442347149819" fill="#ffffff" opacity="0.9">
  <animateMotion begin="-1.4599554938796677s" dur="20s" repeatCount="indefinite">
    <mpath xlink:href="#path93"></mpath>
  </animateMotion>
</circle><path id="path94" d="M 774.3070869413884 771.2109339719834
c 0 36.7707272235597 -8.997092831296522 10.561804628043745 -19.55889745934027 10.561804628043745
S 735.1892920227078 807.9816611955431 735.1892920227078 771.2109339719834
s 8.997092831296522 -10.561804628043745 19.55889745934027 -10.561804628043745
S 774.3070869413884 734.4402067484237 774.3070869413884 771.2109339719834
z" fill="none" stroke="none"></path>
<circle cx="0" cy="0" r="1.209214656317453" fill="#9b9b9b" opacity="0.9">
  <animateMotion begin="-17.30564609140012s" dur="20s" repeatCount="indefinite">
    <mpath xlink:href="#path94"></mpath>
  </animateMotion>
</circle><path id="path95" d="M 730.4923024425312 486.4765144023059
c 0 19.438515459206002 -4.7562325059759365 5.583403376580447 -10.339635882556383 5.583403376580447
S 709.8130306774184 505.9150298615119 709.8130306774184 486.4765144023059
s 4.7562325059759365 -5.583403376580447 10.339635882556383 -5.583403376580447
S 730.4923024425312 467.03799894309986 730.4923024425312 486.4765144023059
z" fill="none" stroke="none"></path>
<circle cx="0" cy="0" r="1.112966492668932" fill="#666666" opacity="0.9">
  <animateMotion begin="-19.004585444379664s" dur="20s" repeatCount="indefinite">
    <mpath xlink:href="#path95"></mpath>
  </animateMotion>
</circle><path id="path96" d="M 600.6962576573021 197.0666210867983
c 0 22.29009999049778 -5.4539606359728605 6.402475529185533 -11.856436165158392 6.402475529185533
S 576.9833853269854 219.35672107729607 576.9833853269854 197.0666210867983
s 5.4539606359728605 -6.402475529185533 11.856436165158392 -6.402475529185533
S 600.6962576573021 174.77652109630054 600.6962576573021 197.0666210867983
z" fill="none" stroke="none"></path>
<circle cx="0" cy="0" r="1.2498350645412106" fill="#ffffff" opacity="0.9">
  <animateMotion begin="-7.193916410969656s" dur="20s" repeatCount="indefinite">
    <mpath xlink:href="#path96"></mpath>
  </animateMotion>
</circle><path id="path97" d="M 524.5599979526352 898.6564005387277
c 0 36.77523895786081 -8.99819676628509 10.563100551725977 -19.561297318011068 10.563100551725977
S 485.4374033166131 935.4316394965884 485.4374033166131 898.6564005387277
s 8.99819676628509 -10.563100551725977 19.561297318011068 -10.563100551725977
S 524.5599979526352 861.8811615808669 524.5599979526352 898.6564005387277
z" fill="none" stroke="none"></path>
<circle cx="0" cy="0" r="1.3815283455991085" fill="#9b9b9b" opacity="0.9">
  <animateMotion begin="-0.6074537501168997s" dur="20s" repeatCount="indefinite">
    <mpath xlink:href="#path97"></mpath>
  </animateMotion>
</circle><path id="path98" d="M 915.2121165424678 201.72144526556218
c 0 20.452646032855082 -5.004370837826243 5.8746962009264605 -10.879067038752703 5.8746962009264605
S 893.4539824649623 222.17409129841727 893.4539824649623 201.72144526556218
s 5.004370837826243 -5.8746962009264605 10.879067038752703 -5.8746962009264605
S 915.2121165424678 181.2687992327071 915.2121165424678 201.72144526556218
z" fill="none" stroke="none"></path>
<circle cx="0" cy="0" r="1.2089080469828755" fill="#ffffff" opacity="0.9">
  <animateMotion begin="-0.5398853295628925s" dur="20s" repeatCount="indefinite">
    <mpath xlink:href="#path98"></mpath>
  </animateMotion>
</circle><path id="path99" d="M 1879.8358473817852 300.76055071537553
c 0 29.47453968250636 -7.211855454230279 8.466091185400764 -15.677946639631042 8.466091185400764
S 1848.4799541025232 330.2350903978819 1848.4799541025232 300.76055071537553
s 7.211855454230279 -8.466091185400764 15.677946639631042 -8.466091185400764
S 1879.8358473817852 271.28601103286917 1879.8358473817852 300.76055071537553
z" fill="none" stroke="none"></path>
<circle cx="0" cy="0" r="1.2892977809412032" fill="#353535" opacity="0.9">
  <animateMotion begin="-6.027963037796353s" dur="20s" repeatCount="indefinite">
    <mpath xlink:href="#path99"></mpath>
  </animateMotion>
</circle></g>
</svg>