<svg width="253" height="236" fill="none" xmlns="http://www.w3.org/2000/svg" data-v-33825198=""><path d="M145.219 88.63l-70.962 83.95 10.276 8.56 70.962-83.951-10.276-8.56z" fill="#1F2028"></path><path d="M154.527 97.273L84.441 180.18l-9.223-7.683L145.3 89.582l9.227 7.692zm1.931-.169l-1.039-.878-9.239-7.683-1.047-.874-.88 1.04-70.082 82.913-.88 1.039 1.046.874 9.228 7.687 1.05.874.88-1.043 70.083-82.91.88-1.043v.004z" fill="#fff"></path><path d="M62.855 185.237a3.541 3.541 0 01-1.27-2.725c.002-.519.119-1.031.343-1.5.223-.469.548-.884.95-1.215l6.956-5.696a3.585 3.585 0 014.56.02l8.58 7.148a3.52 3.52 0 01.793 4.456l-4.436 7.786a3.556 3.556 0 01-2.459 1.741 3.577 3.577 0 01-2.923-.753l-11.094-9.262z" fill="#1F2028"></path><path d="M82.536 181.789a2.841 2.841 0 01.654 3.598l-4.441 7.79a2.888 2.888 0 01-3.248 1.361 2.893 2.893 0 01-1.114-.574l-11.103-9.243a2.863 2.863 0 01-1.027-2.203 2.843 2.843 0 011.047-2.193l6.955-5.692a2.89 2.89 0 013.684 0l8.581 7.144m.88-1.039l-8.58-7.148a4.272 4.272 0 00-2.715-.986 4.272 4.272 0 00-2.722.962l-6.955 5.696a4.198 4.198 0 00-.028 6.487l11.103 9.238a4.262 4.262 0 003.488.92 4.257 4.257 0 002.944-2.073l4.44-7.79a4.19 4.19 0 00-.967-5.306h-.008z" fill="#fff"></path><path d="M34.396 227.107a2.462 2.462 0 01-.397-3.373l26.6-35.427a2.494 2.494 0 012.714-.892c.325.097.627.258.886.475l6.904 5.751a2.483 2.483 0 01.884 1.752 2.465 2.465 0 01-.674 1.842L40.781 229.39a2.502 2.502 0 01-1.67.771 2.505 2.505 0 01-1.749-.574l-2.966-2.48z" fill="#1F2028"></path><path d="M70.664 194.145a1.801 1.801 0 01.643 1.27 1.783 1.783 0 01-.489 1.336l-30.532 32.16a1.822 1.822 0 01-2.479.141l-2.958-2.464a1.789 1.789 0 01-.29-2.448l26.6-35.427a1.817 1.817 0 011.97-.646c.235.07.454.186.643.343l6.904 5.751m.88-1.043l-6.904-5.747a3.184 3.184 0 00-3.632-.318 3.163 3.163 0 00-.96.849l-26.598 35.427a3.131 3.131 0 00.507 4.298l2.958 2.468a3.187 3.187 0 004.362-.252l30.533-32.159a3.143 3.143 0 00.863-2.349 3.132 3.132 0 00-1.133-2.233l.004.016z" fill="#fff"></path><path d="M189.487 82.418a6.272 6.272 0 01-.955-.988l-22.281-27.684c-3.053-3.905-2.558-9.68 1.126-13.151a117.532 117.532 0 0017.447-20.642c2.8-4.204 8.442-5.692 12.844-3.39l31.349 16.982a6.43 6.43 0 011.146.748c3.613 3.011 3.644 9.58.068 14.958a174.246 174.246 0 01-25.89 30.628c-4.714 4.444-11.249 5.554-14.854 2.539z" fill="#1F2028"></path><path d="M229.803 34.726c3.28 2.731 3.526 8.884-.035 14.237a173.204 173.204 0 01-25.81 30.53c-4.691 4.412-10.841 5.235-14.117 2.503a5.759 5.759 0 01-.876-.901L166.68 53.403c-2.934-3.759-2.339-9.195 1.075-12.419a117.967 117.967 0 0017.53-20.736c2.594-3.897 7.871-5.432 12.126-3.208l31.326 16.977c.373.197.725.432 1.051.7m.725-.818a6.954 6.954 0 00-1.249-.834l-15.254-8.267-16.072-8.71c-4.663-2.441-10.619-.875-13.577 3.542a116.86 116.86 0 01-17.368 20.547c-3.886 3.661-4.409 9.758-1.189 13.88l11.424 14.23 10.857 13.493c.305.387.649.742 1.027 1.059 3.83 3.188 10.678 2.07 15.591-2.547a174.773 174.773 0 0025.973-30.727c3.727-5.605 3.648-12.49-.179-15.678l.016.012z" fill="#fff"></path><path d="M221.412 29.982s.698 14.6-11.725 29.294c-9.315 11.022-19.513 15.458-24.625 16.493" fill="#1F2028"></path><path d="M221.412 29.982s.698 14.6-11.725 29.294c-9.315 11.022-19.513 15.458-24.625 16.493" stroke="#fff" stroke-miterlimit="10"></path><path d="M231.969 50.6l-26.001 30.76 3.132 2.609 26.001-30.76-3.132-2.608z" fill="#1F2028"></path><path d="M234.331 53.277L209.04 83.193l-2.284-1.905 25.291-29.916 2.284 1.905zm1.558-.134l-.848-.704-2.296-1.905-.849-.705-.71.838-25.29 29.916-.71.843.849.704 2.284 1.901.848.709.71-.842 25.29-29.916.71-.839h.012z" fill="#fff"></path><path d="M242.284 46.655l-38.441 45.478 9.526 7.934L251.81 54.59l-9.526-7.935z" fill="#1F2028"></path><path d="M251.031 54.656l-37.718 44.637-8.68-7.227 37.734-44.637 8.676 7.227m1.558-.134l-.845-.705-8.703-7.23-.849-.705-.71.842-37.698 44.645-.713.843.848.704 8.68 7.231.845.705.713-.842 37.73-44.638.71-.838-.008-.012z" fill="#fff"></path><path d="M220.535 71.283c2.223 0 4.025-1.79 4.025-3.996s-1.802-3.995-4.025-3.995c-2.223 0-4.025 1.789-4.025 3.995 0 2.207 1.802 3.996 4.025 3.996z" fill="#1F2028"></path><path d="M222.768 64.645a3.453 3.453 0 011.102 1.677 3.423 3.423 0 01-.022 2.002 3.45 3.45 0 01-1.139 1.652 3.498 3.498 0 01-3.845.334 3.46 3.46 0 01-1.41-1.43 3.427 3.427 0 01.42-3.81 3.486 3.486 0 014.894-.425zm.709-.842a4.611 4.611 0 00-5.059-.548 4.57 4.57 0 00-1.9 1.846 4.524 4.524 0 00.446 5.033 4.579 4.579 0 002.195 1.49c.864.27 1.79.279 2.659.027a4.531 4.531 0 001.659-7.836v-.012z" fill="#fff"></path><path d="M193.155 58.977c8.068 0 14.608-6.492 14.608-14.501s-6.54-14.501-14.608-14.501c-8.068 0-14.608 6.492-14.608 14.5 0 8.01 6.54 14.502 14.608 14.502z" fill="#1F2028"></path><path d="M202.187 33.79a13.952 13.952 0 014.461 6.784c.778 2.65.747 5.469-.089 8.101a13.947 13.947 0 01-4.608 6.687 14.145 14.145 0 01-15.56 1.352 14.006 14.006 0 01-5.707-5.791 13.863 13.863 0 01-1.505-7.963 13.9 13.9 0 013.206-7.45 14.087 14.087 0 019.542-4.931 14.125 14.125 0 0110.26 3.21zm.71-.843a15.254 15.254 0 00-16.743-1.819 15.108 15.108 0 00-6.29 6.11 14.958 14.958 0 001.467 16.656 15.163 15.163 0 007.263 4.933c2.859.896 5.921.93 8.8.097a15.173 15.173 0 007.371-4.772 14.994 14.994 0 003.485-10.986 15.035 15.035 0 00-5.353-10.219z" fill="#fff"></path><path d="M163.528 38.86a2.456 2.456 0 01-.634-.788 184.869 184.869 0 00-1.82-3.472 2.789 2.789 0 01.555-3.365 82.157 82.157 0 0012.895-15.257 2.834 2.834 0 011.429-1.105 2.855 2.855 0 011.811-.021c1.247.407 2.503.8 3.767 1.18.331.098.639.261.904.481a2.69 2.69 0 01.432 3.543 93.112 93.112 0 01-15.734 18.607 2.73 2.73 0 01-3.605.197z" fill="#1F2028"></path><path d="M182.079 16.91a2.152 2.152 0 01.321 2.846 92.347 92.347 0 01-15.639 18.5 2.186 2.186 0 01-2.879.182 1.967 1.967 0 01-.495-.626 157.557 157.557 0 00-1.824-3.487 2.243 2.243 0 01-.236-1.427c.08-.488.319-.937.68-1.278a82.716 82.716 0 0012.982-15.351 2.299 2.299 0 012.605-.901c1.253.406 2.512.8 3.775 1.18.262.08.504.214.71.394m.702-.87a2.973 2.973 0 00-1.107-.587 136.662 136.662 0 01-3.743-1.18 3.41 3.41 0 00-2.169.03c-.7.246-1.299.714-1.705 1.331a81.609 81.609 0 01-12.808 15.151 3.336 3.336 0 00-.674 4.019c.615 1.15 1.226 2.315 1.812 3.468.188.375.451.707.774.976a3.277 3.277 0 004.334-.212 93.614 93.614 0 0015.825-18.721 3.226 3.226 0 00-.539-4.275z" fill="#fff"></path><path d="M159.438 29.042a1.752 1.752 0 01-.448-.583 78.777 78.777 0 00-1.19-2.255 2.003 2.003 0 01.397-2.421 53.085 53.085 0 008.359-9.892 2.048 2.048 0 012.347-.807 126.1 126.1 0 002.447.764c.241.069.465.187.658.346a1.94 1.94 0 01.317 2.567 60.52 60.52 0 01-10.27 12.151 1.965 1.965 0 01-2.617.13z" fill="#1F2028"></path><path d="M171.632 14.612a1.4 1.4 0 01.21 1.85 60.141 60.141 0 01-10.179 12.045 1.426 1.426 0 01-1.871.114 1.257 1.257 0 01-.321-.394c-.389-.764-.785-1.52-1.19-2.271a1.472 1.472 0 01.29-1.76 53.608 53.608 0 008.446-9.994 1.503 1.503 0 011.697-.586c.817.263 1.633.52 2.458.787.169.05.325.132.46.244m.714-.842a2.428 2.428 0 00-.865-.457c-.793-.24-1.625-.496-2.422-.756a2.599 2.599 0 00-1.66.018 2.574 2.574 0 00-1.306 1.018 52.81 52.81 0 01-8.292 9.754 2.557 2.557 0 00-.511 3.082c.396.744.793 1.5 1.189 2.247.147.288.351.544.599.752a2.517 2.517 0 003.327-.146 61.275 61.275 0 0010.365-12.261 2.481 2.481 0 00-.428-3.283l.004.032z" fill="#fff"></path><path d="M164.996 81.43a2.884 2.884 0 01-.357-4.074l6.844-9.774a2.929 2.929 0 013.124-.937c.369.113.712.298 1.008.543l.04.032 6.844 8.404c.658 1.004 1.344 2.94-1.079 5.192l-6.217 5.396a2.931 2.931 0 01-4.077.323l-6.13-5.105z" fill="#1F2028"></path><path d="M175.247 67.606l6.809 8.376c.749 1.15.868 2.685-1.027 4.444l-6.238 5.4a2.349 2.349 0 01-1.601.829 2.37 2.37 0 01-1.722-.54l-6.13-5.118a2.33 2.33 0 01-.289-3.299l6.871-9.813a2.39 2.39 0 013.327-.291m.793-.787l-.083-.067a3.486 3.486 0 00-4.885.425l-.032.035-.028.043-6.848 9.774a3.43 3.43 0 00.464 4.806l6.131 5.118a3.486 3.486 0 004.821-.355l6.174-5.349c2.748-2.547 1.947-4.77 1.23-5.869l-.032-.047-.036-.043-6.796-8.361-.064-.083-.016-.027z" fill="#fff"></path><path d="M145.531 84.22c-1.566-1.306-.722-3.286-.444-3.936l14.386-27.286a2.398 2.398 0 011.669-1.322 2.645 2.645 0 012.209.559c.146.116.279.248.397.393l7.26 9.152c1.19 1.925.432 3.027-.964 5.035l-15.02 21.48a2.924 2.924 0 01-1.985 1.052 2.947 2.947 0 01-2.151-.658l-5.357-4.468z" fill="#1F2028"></path><path d="M162.997 52.656c.11.09.21.193.297.307l7.268 9.16c.984 1.574.377 2.425-1.031 4.444l-14.949 21.417a2.36 2.36 0 01-2.516.728 2.358 2.358 0 01-.807-.44l-5.353-4.472c-.999-.83-.829-2.04-.289-3.299l14.366-27.25a1.932 1.932 0 012.251-1.018c.289.078.556.224.778.423m.71-.838a3.178 3.178 0 00-2.676-.677 2.951 2.951 0 00-1.221.574 2.922 2.922 0 00-.833 1.055l-14.355 27.22-.023.039v.043c-.853 1.992-.651 3.543.598 4.57l5.365 4.472a3.493 3.493 0 004.846-.425l.032-.04.027-.04 14.953-21.416.04-.06c1.432-2.054 2.379-3.408 1.019-5.585l-.032-.055-.039-.047-7.277-9.16a2.803 2.803 0 00-.456-.468h.032z" fill="#fff"></path><path d="M156.334 93.215a2.512 2.512 0 01-.456-3.405l4.528-6.451a2.565 2.565 0 011.768-1.066 2.593 2.593 0 011.987.57l5.353 4.46a2.552 2.552 0 01.917 1.922 2.542 2.542 0 01-.869 1.943l-5.992 5.231a2.563 2.563 0 01-3.346.04l-3.89-3.244z" fill="#1F2028"></path><path d="M169.157 87.744a1.98 1.98 0 01.549 2.343 1.984 1.984 0 01-.509.688l-5.996 5.235a2.017 2.017 0 01-2.621.028l-3.894-3.244a1.989 1.989 0 01-.356-2.673l4.528-6.447a2.022 2.022 0 012.946-.394l5.353 4.46m.714-.838l-5.357-4.464a3.133 3.133 0 00-4.56.602l-4.532 6.456a3.07 3.07 0 00.555 4.141l3.894 3.243a3.122 3.122 0 004.064-.047l5.992-5.235a3.1 3.1 0 001.055-2.359 3.1 3.1 0 00-1.111-2.333v-.004z" fill="#fff"></path><path d="M143.027 88.401a1.41 1.41 0 01-.428-1.543l.349-1.007a1.41 1.41 0 01.965-.901 1.434 1.434 0 011.295.279l13.978 11.651a1.412 1.412 0 01.275 1.853c-.126.192-.296.35-.498.462l-.939.52a1.438 1.438 0 01-1.61-.154L143.027 88.4z" fill="#1F2028"></path><path d="M158.827 97.274a.86.86 0 01.169 1.134.87.87 0 01-.304.283l-.94.551a.87.87 0 01-.983-.09l-13.391-11.168a.872.872 0 01-.272-.434.872.872 0 01.022-.51l.353-1.012a.87.87 0 011.007-.574c.138.029.268.09.377.18l13.962 11.64zm.71-.838l-13.974-11.644a1.988 1.988 0 00-1.797-.385 1.985 1.985 0 00-1.343 1.247l-.349 1.008a1.951 1.951 0 00.595 2.145l13.39 11.151a1.991 1.991 0 002.229.213l.94-.52a1.956 1.956 0 00.309-3.216z" fill="#fff"></path><path d="M199.534 62.06c-.04-.1-3.703-9.554-5.044-12.632-.46-1.055-1.027-1.728-1.213-1.728 0 0-.456.193-.638 2.794l-.147 2.146-8.208-24.598 1.76 2.63c.068.102 6.717 10.037 9.378 12.938.04.04.087.094.139.154.488.566.694.688.793.688 0 0 .345-.252.293-2.436l-.035-1.618 4.318 7.278a6.676 6.676 0 01.884 4.365l-1.681 11.526-.599-1.508z" fill="#1F2028"></path><path d="M185.686 30.908s6.706 10.03 9.422 12.99c.238.26.793.98 1.233.98.44 0 .773-.634.722-2.87l3.501 5.877a6.254 6.254 0 01.793 4.098l-1.447 9.927s-3.648-9.51-5.032-12.659c-.17-.394-.928-1.968-1.586-1.968-.468 0-.892.76-1.063 3.192l-6.543-19.567zm-2.807-5.731l2.003 5.995 6.522 19.563 1.361 4.074.297-4.283c.028-.733.139-1.46.333-2.169.28.386.515.802.702 1.24 1.34 3.07 5 12.518 5.036 12.596l1.17 3.02.467-3.2 1.44-9.912a7.099 7.099 0 00-.928-4.649l-3.497-5.877-1.658-2.783.071 3.232a9.289 9.289 0 01-.083 1.74 7.182 7.182 0 01-.246-.276l-.142-.165c-2.641-2.873-9.275-12.785-9.343-12.883l-3.517-5.263h.012z" fill="#fff"></path><path d="M184.327 204.706c5.734 7.148 22.031 29.294 22.031 29.294l-3.251-26.767a16.82 16.82 0 00-5.009-10.065l-13.232-12.812c3.541 11.927-2.189 7.234-3.735 6.258-9.12-5.786-43.567-38.922-43.567-38.922l40.7 58.001c-3.133-15.741 4.838-6.514 6.063-4.987zM47.967 63.193c9.887 0 17.903-7.957 17.903-17.772 0-9.816-8.016-17.773-17.903-17.773-9.888 0-17.903 7.957-17.903 17.773 0 9.815 8.015 17.772 17.903 17.772z" fill="#1F2028" stroke="#fff" stroke-miterlimit="10"></path><path d="M.973 54.427l30.898 36.549 13.533-.953 1.015-11.525-2.557-3.027s-8.264.83-1.408-10.573l-21.81-25.794-17.01 2.782-2.66 12.541zM41.08 37.217l-.003.002a2.15 2.15 0 00-.268 3.045l6.342 7.502a2.188 2.188 0 003.066.266l.003-.002a2.15 2.15 0 00.269-3.045l-6.342-7.502a2.188 2.188 0 00-3.067-.266z" fill="#1F2028" stroke="#fff" stroke-miterlimit="10"></path><path d="M48.977 50.868c2.396 0 4.338-1.928 4.338-4.306s-1.942-4.306-4.338-4.306-4.338 1.928-4.338 4.306 1.942 4.306 4.338 4.306z" fill="#1F2028" stroke="#fff" stroke-miterlimit="10"></path><path d="M43.599 58.489s6.519 2.287 12.899-3.027l-12.9 3.027z" fill="#1F2028"></path><path d="M43.599 58.489s6.519 2.287 12.899-3.027" stroke="#fff" stroke-miterlimit="10"></path><path d="M65.117 1L96.01 37.548l-3.295 13.069-11.606-1.012-2.562-3.027s2.26-7.931-10.242-3.212l-21.81-25.794L52.21 1.433 65.117 1zM32.528 41.49l14.277-11.892-3.179-3.76L29.35 37.728l3.178 3.76z" fill="#1F2028" stroke="#fff" stroke-miterlimit="10"></path><path d="M61.744 43.378s1.138 6.77-5.242 12.084l5.242-12.084z" fill="#1F2028"></path><path d="M61.744 43.378s1.138 6.77-5.242 12.084" stroke="#fff" stroke-miterlimit="10"></path><path d="M67.14 52.8L52.44 65.048l2.317 2.74 14.702-12.245L67.14 52.8zM75.683 62.904L60.981 75.15l2.317 2.741L78 65.645l-2.317-2.74z" fill="#1F2028" stroke="#fff" stroke-miterlimit="10"></path><path d="M68.34 69.017c3.574-2.976 5.078-7.037 3.359-9.07-1.72-2.034-6.01-1.27-9.582 1.707-3.574 2.976-5.077 7.037-3.358 9.07 1.718 2.034 6.008 1.27 9.582-1.707zM73.758 69.178l-6.254 5.21 13.374 15.821L87.132 85 73.758 69.179z" fill="#1F2028" stroke="#fff" stroke-miterlimit="10"></path><path d="M86.207 85.77l-4.402 3.667a2.005 2.005 0 00-.25 2.84l17.597 20.817c.72.853 2.001.964 2.86.249l4.402-3.666a2.006 2.006 0 00.25-2.84L89.067 86.019a2.04 2.04 0 00-2.86-.248z" fill="#1F2028" stroke="#fff" stroke-miterlimit="10"></path><path d="M107.335 108.902l-6.254 5.209 13.374 15.822 6.254-5.21-13.374-15.821z" fill="#1F2028" stroke="#fff" stroke-miterlimit="10"></path><path d="M119.784 125.495l-4.402 3.667a2.004 2.004 0 00-.25 2.839l17.597 20.818a2.04 2.04 0 002.861.248l4.401-3.666a2.005 2.005 0 00.25-2.839l-17.597-20.818a2.04 2.04 0 00-2.86-.249z" fill="#1F2028" stroke="#fff" stroke-miterlimit="10"></path><path d="M140.916 148.627l-6.254 5.21 23.33 27.6 6.254-5.21-23.33-27.6zM21.334 49.035l1.071-5.519 6.943-5.786 4.608-.276 1.17 8.81 8.652 10.234-.476 5.377-3.787 3.157-5.028-.437-13.153-15.56zM56.228 19.965l-5.658.09-6.944 5.783-1.074 4.456 8.537 2.676 8.648 10.235 5.417.468 3.787-3.153.44-4.995-13.153-15.56z" fill="#1F2028" stroke="#fff" stroke-miterlimit="10"></path></svg>