<svg width="89" height="41" fill="none" xmlns="http://www.w3.org/2000/svg" data-v-3f0de0c4="" style="transform: translate(0px, 0px);"><path d="M5.826.322H0v28.464H13.827V17.629H8.001v7.9H5.826V3.58H8v7.9h5.826V.322H5.826zM22.786 25.53h-2.175V.321h-5.826v28.464H28.612V17.629h-5.826v7.9zM35.395.322h-5.826v28.464h13.827V.322h-8.001zM37.57 25.53h-2.175V3.58h2.175v21.95zM64.902 15.793h2.913v-4.544h-2.913V4.866h6.73V.322H59.077v28.464H72.037v-4.543h-7.135v-8.45zM52.276 9.465L50.101.322h-5.826v28.464H50.1V13.624l2.175 14.995v.167h5.826V.322h-5.826v9.143zM88.134 0h-5.289l-1.848 9.42L79.15 0h-5.29v12.004l2.451 2.45-2.45 2.45v12.17h5.21l-.459 3.215.741-1.277c.862-1.483 1.19-1.478 1.189-1.479.112.06.244.614.206 1.377-.11 2.224-.716 8.926-.722 8.994L79.926 41l4.392-6.4a4.479 4.479 0 00.77-2.864l-.205-2.662h3.253V17.108l-2.653-2.653 2.653-2.652V0h-.002zm-.574 11.562l-2.89 2.89 2.89 2.891v11.155h-2.722l-.182-2.381-.462.996c-.606 1.306-.885 1.358-.882 1.363-.073-.039-.16-.252-.257-.634l-.035-.131c-.724-2.504-1.743-9.96-1.753-10.035l-.277-2.04-1.837 12.863h-4.718V17.142l2.689-2.688-2.689-2.688V.574h4.243l2.32 11.831L83.318.574h4.244v10.988h-.002z" fill="#fff"></path></svg>